G04 Layer: TopSilkLayer*
G04 EasyEDA v6.4.25, 2021-10-20T20:18:06+03:00*
G04 dcba5cd40900447394ce88492ccb6976,3ac546bf038a4e40b039f7879bd882b5,10*
G04 Gerber Generator version 0.2*
G04 Scale: 100 percent, Rotated: No, Reflected: No *
G04 Dimensions in millimeters *
G04 leading zeros omitted , absolute positions ,4 integer and 5 decimal *
%FSLAX45Y45*%
%MOMM*%

%ADD10C,0.2540*%
%ADD31C,0.1500*%
%ADD33C,0.1524*%
%ADD34C,0.2032*%
%ADD35C,0.2030*%
%ADD36C,0.0508*%
%ADD37C,0.0500*%

%LPD*%
G36*
X1407363Y5295900D02*
G01*
X1403756Y5292852D01*
X1380490Y5270449D01*
X1340510Y5231130D01*
X1262329Y5153101D01*
X1205788Y5096002D01*
X1191209Y5080812D01*
X1181963Y5070703D01*
X1177340Y5064963D01*
X1176477Y5063439D01*
X1176477Y5062677D01*
X1177239Y5062677D01*
X1178763Y5063540D01*
X1184503Y5068163D01*
X1194612Y5077409D01*
X1209802Y5091988D01*
X1258824Y5140401D01*
X1344930Y5226659D01*
X1384249Y5266639D01*
X1406652Y5289956D01*
X1409700Y5293563D01*
X1409496Y5294477D01*
X1409039Y5295188D01*
X1408277Y5295696D01*
G37*
G36*
X1014780Y5267604D02*
G01*
X1011682Y5266740D01*
X1010361Y5265775D01*
X1009142Y5263845D01*
X1007973Y5260644D01*
X1006703Y5255869D01*
X1003808Y5240578D01*
X993648Y5174386D01*
X990092Y5152491D01*
X978153Y5074615D01*
X976528Y5061864D01*
X975918Y5055362D01*
X976121Y5051552D01*
X977442Y5049266D01*
X980135Y5047234D01*
X984859Y5045252D01*
X989533Y5045252D01*
X993495Y5047030D01*
X996187Y5050536D01*
X997153Y5054193D01*
X1000099Y5070297D01*
X1006348Y5110480D01*
X1009700Y5130444D01*
X1025093Y5232704D01*
X1026972Y5247538D01*
X1027734Y5256733D01*
X1027480Y5260543D01*
X1026312Y5262930D01*
X1023975Y5264912D01*
X1020826Y5266690D01*
X1017778Y5267604D01*
G37*
G36*
X938580Y5235752D02*
G01*
X933348Y5235041D01*
X929741Y5231790D01*
X910132Y5211876D01*
X879957Y5179771D01*
X869340Y5167731D01*
X865987Y5163515D01*
X863701Y5160264D01*
X862482Y5157876D01*
X862076Y5156200D01*
X862482Y5154523D01*
X863701Y5152085D01*
X869340Y5144668D01*
X879957Y5132628D01*
X896569Y5114747D01*
X910285Y5100472D01*
X922070Y5088585D01*
X930656Y5080355D01*
X933399Y5077968D01*
X934872Y5077002D01*
X939393Y5076901D01*
X943559Y5078984D01*
X946607Y5082743D01*
X947775Y5087569D01*
X947521Y5089448D01*
X946708Y5091633D01*
X945083Y5094325D01*
X942543Y5097780D01*
X933754Y5107838D01*
X907694Y5135575D01*
X898499Y5145684D01*
X892302Y5152898D01*
X890016Y5156200D01*
X892302Y5159451D01*
X898499Y5166715D01*
X933703Y5204510D01*
X942492Y5214569D01*
X945083Y5218023D01*
X946708Y5220716D01*
X947521Y5222900D01*
X947775Y5224780D01*
X946505Y5230114D01*
X943203Y5233974D01*
G37*
G36*
X1066698Y5235448D02*
G01*
X1063244Y5234990D01*
X1060602Y5233416D01*
X1058113Y5231079D01*
X1055878Y5226405D01*
X1057097Y5220919D01*
X1062329Y5213350D01*
X1072235Y5202326D01*
X1106271Y5166207D01*
X1112723Y5158943D01*
X1114044Y5157114D01*
X1114450Y5156200D01*
X1114044Y5155285D01*
X1110183Y5150510D01*
X1100734Y5140198D01*
X1065072Y5102301D01*
X1059942Y5096052D01*
X1056843Y5091480D01*
X1055776Y5088534D01*
X1058011Y5081422D01*
X1063498Y5077663D01*
X1070406Y5077764D01*
X1077061Y5082235D01*
X1088186Y5094274D01*
X1109065Y5116322D01*
X1129690Y5138470D01*
X1136751Y5146446D01*
X1140256Y5150815D01*
X1142136Y5153964D01*
X1142796Y5156200D01*
X1142136Y5158435D01*
X1140256Y5161584D01*
X1136751Y5165953D01*
X1120089Y5184343D01*
X1077366Y5229656D01*
X1074013Y5232704D01*
X1070356Y5234686D01*
G37*
G36*
X1140104Y5049926D02*
G01*
X1135583Y5049723D01*
X1131265Y5048250D01*
X1127404Y5045456D01*
X1124407Y5041392D01*
X1123148Y5037429D01*
X1136599Y5037429D01*
X1138123Y5040274D01*
X1140510Y5040630D01*
X1142746Y5037785D01*
X1142949Y5036413D01*
X1142695Y5034838D01*
X1142034Y5033314D01*
X1141018Y5031994D01*
X1139444Y5030571D01*
X1138377Y5030216D01*
X1137666Y5031028D01*
X1136904Y5033010D01*
X1136599Y5037429D01*
X1123148Y5037429D01*
X1123035Y5037074D01*
X1123442Y5032705D01*
X1126794Y5026355D01*
X1126845Y5024475D01*
X1125423Y5022189D01*
X1122375Y5018836D01*
X1119225Y5014823D01*
X1117346Y5010759D01*
X1116679Y5006949D01*
X1129334Y5006949D01*
X1130300Y5010912D01*
X1132078Y5013604D01*
X1133957Y5014366D01*
X1136243Y5013198D01*
X1139545Y5010048D01*
X1142187Y5006136D01*
X1142593Y5002834D01*
X1140815Y5000599D01*
X1136954Y4999736D01*
X1132992Y5000752D01*
X1130350Y5003342D01*
X1129334Y5006949D01*
X1116679Y5006949D01*
X1116888Y5002784D01*
X1118158Y4999177D01*
X1120241Y4995926D01*
X1123086Y4993132D01*
X1126591Y4990998D01*
X1130706Y4989626D01*
X1135227Y4989068D01*
X1140155Y4989474D01*
X1148283Y4991963D01*
X1150823Y4992522D01*
X1152702Y4992573D01*
X1156614Y4990998D01*
X1161999Y4990439D01*
X1167130Y4990592D01*
X1169416Y4991557D01*
X1168044Y4993944D01*
X1162304Y5001361D01*
X1161237Y5003698D01*
X1161491Y5005984D01*
X1165301Y5014874D01*
X1165656Y5018887D01*
X1163929Y5021326D01*
X1160119Y5022088D01*
X1157427Y5021935D01*
X1155700Y5021326D01*
X1154785Y5020208D01*
X1154074Y5015331D01*
X1152855Y5014112D01*
X1150975Y5014772D01*
X1148537Y5017363D01*
X1146860Y5019852D01*
X1146454Y5021630D01*
X1147470Y5023408D01*
X1151940Y5028133D01*
X1153363Y5030622D01*
X1154226Y5033314D01*
X1154531Y5036261D01*
X1153718Y5040630D01*
X1151585Y5044287D01*
X1148384Y5047132D01*
X1144473Y5049062D01*
G37*
G36*
X1375410Y5030368D02*
G01*
X1369415Y5027117D01*
X1366316Y5024983D01*
X1361795Y5022545D01*
X1356461Y5020005D01*
X1343863Y5014671D01*
X1337919Y5011216D01*
X1331976Y5006492D01*
X1318310Y4993284D01*
X1313484Y4989322D01*
X1309725Y4987239D01*
X1304442Y4986375D01*
X1302054Y4985308D01*
X1298956Y4983226D01*
X1295148Y4980076D01*
X1320292Y4980076D01*
X1321308Y4982362D01*
X1324051Y4985766D01*
X1328064Y4989982D01*
X1338021Y4998974D01*
X1343101Y5002987D01*
X1347571Y5006035D01*
X1351026Y5007813D01*
X1356512Y5009489D01*
X1358341Y5009845D01*
X1359204Y5009794D01*
X1359255Y5008880D01*
X1358036Y5004308D01*
X1356868Y5001107D01*
X1354785Y4996992D01*
X1351381Y4992065D01*
X1346962Y4986680D01*
X1341780Y4981143D01*
X1329690Y4969205D01*
X1323187Y4975504D01*
X1321663Y4977333D01*
X1320647Y4978958D01*
X1320292Y4980076D01*
X1295148Y4980076D01*
X1289354Y4974793D01*
X1273098Y4959045D01*
X1250746Y4936744D01*
X1234897Y4921300D01*
X1225550Y4913071D01*
X1222705Y4911090D01*
X1220774Y4910277D01*
X1219504Y4910429D01*
X1215948Y4911852D01*
X1212596Y4911344D01*
X1208278Y4908397D01*
X1201154Y4901844D01*
X1229004Y4901844D01*
X1236014Y4908651D01*
X1237843Y4909718D01*
X1239418Y4909616D01*
X1242771Y4907330D01*
X1244092Y4907026D01*
X1245463Y4907534D01*
X1247140Y4909007D01*
X1248562Y4910632D01*
X1249121Y4912004D01*
X1248816Y4913325D01*
X1246581Y4916627D01*
X1246479Y4918151D01*
X1247394Y4919980D01*
X1249476Y4922418D01*
X1251762Y4924552D01*
X1253642Y4925669D01*
X1255369Y4925771D01*
X1257350Y4925009D01*
X1261008Y4924094D01*
X1263751Y4925161D01*
X1265021Y4927701D01*
X1264208Y4931206D01*
X1263396Y4933238D01*
X1263446Y4935067D01*
X1264462Y4936998D01*
X1266444Y4939385D01*
X1268425Y4941265D01*
X1270101Y4942332D01*
X1271473Y4942586D01*
X1275283Y4940350D01*
X1278128Y4940198D01*
X1280312Y4941366D01*
X1281176Y4943754D01*
X1281023Y4945227D01*
X1280566Y4946650D01*
X1279906Y4947869D01*
X1279144Y4948631D01*
X1279499Y4950256D01*
X1281938Y4953711D01*
X1285849Y4958334D01*
X1295603Y4968646D01*
X1300327Y4973066D01*
X1304086Y4976215D01*
X1306322Y4977384D01*
X1307896Y4976571D01*
X1310690Y4974386D01*
X1318463Y4967122D01*
X1328623Y4956860D01*
X1307033Y4935524D01*
X1302308Y4931460D01*
X1299311Y4929987D01*
X1297381Y4930495D01*
X1293317Y4932070D01*
X1290167Y4930749D01*
X1288948Y4927600D01*
X1290828Y4923739D01*
X1291691Y4922469D01*
X1291640Y4921046D01*
X1290675Y4919218D01*
X1288643Y4916830D01*
X1286560Y4914900D01*
X1284833Y4913782D01*
X1283411Y4913477D01*
X1279956Y4915357D01*
X1276858Y4915916D01*
X1275029Y4915662D01*
X1274064Y4914747D01*
X1273860Y4912817D01*
X1274572Y4906264D01*
X1274216Y4903724D01*
X1273048Y4901488D01*
X1270965Y4899202D01*
X1269034Y4897577D01*
X1267460Y4896713D01*
X1266240Y4896561D01*
X1264666Y4897932D01*
X1262075Y4898999D01*
X1260602Y4899152D01*
X1258214Y4898288D01*
X1257046Y4896053D01*
X1257198Y4893259D01*
X1259382Y4889449D01*
X1259128Y4888026D01*
X1258011Y4886299D01*
X1251305Y4879797D01*
X1229004Y4901844D01*
X1201154Y4901844D01*
X1196390Y4897170D01*
X1193393Y4893462D01*
X1192225Y4890363D01*
X1192479Y4885232D01*
X1192174Y4883353D01*
X1191158Y4881168D01*
X1189278Y4878476D01*
X1186332Y4874920D01*
X1179368Y4867503D01*
X1192834Y4867503D01*
X1199438Y4873904D01*
X1201013Y4874768D01*
X1202283Y4874310D01*
X1203706Y4872634D01*
X1206296Y4870297D01*
X1209192Y4869434D01*
X1211783Y4870094D01*
X1213510Y4872278D01*
X1213510Y4873955D01*
X1212545Y4876241D01*
X1210665Y4878984D01*
X1201115Y4889042D01*
X1209598Y4897323D01*
X1213815Y4900523D01*
X1215034Y4901031D01*
X1217218Y4899609D01*
X1227632Y4890211D01*
X1252220Y4865624D01*
X1238554Y4851958D01*
X1231036Y4858766D01*
X1227734Y4861458D01*
X1224788Y4863388D01*
X1222400Y4864404D01*
X1220673Y4864455D01*
X1218641Y4862576D01*
X1217930Y4859782D01*
X1218590Y4856988D01*
X1220622Y4855108D01*
X1222705Y4853686D01*
X1223314Y4851603D01*
X1222400Y4849114D01*
X1220063Y4846370D01*
X1217930Y4844999D01*
X1215440Y4845608D01*
X1211478Y4848809D01*
X1192834Y4867503D01*
X1179368Y4867503D01*
X1157427Y4844897D01*
X1150112Y4836718D01*
X1146403Y4831537D01*
X1145839Y4829200D01*
X1154480Y4829200D01*
X1175867Y4850587D01*
X1184605Y4858816D01*
X1186180Y4860036D01*
X1187500Y4859121D01*
X1194206Y4852873D01*
X1210411Y4836668D01*
X1178763Y4805172D01*
X1154480Y4829200D01*
X1145839Y4829200D01*
X1145743Y4826660D01*
X1145032Y4824577D01*
X1143558Y4822240D01*
X1141272Y4819802D01*
X1137615Y4815332D01*
X1136142Y4811014D01*
X1136358Y4809591D01*
X1147064Y4809591D01*
X1147114Y4811471D01*
X1148638Y4813503D01*
X1151128Y4815941D01*
X1152753Y4817008D01*
X1153668Y4816551D01*
X1157884Y4812842D01*
X1167536Y4803089D01*
X1163624Y4799736D01*
X1161237Y4797958D01*
X1159256Y4797755D01*
X1156716Y4799380D01*
X1148791Y4807153D01*
X1147064Y4809591D01*
X1136358Y4809591D01*
X1136751Y4807000D01*
X1139545Y4803292D01*
X1141476Y4801311D01*
X1142238Y4799634D01*
X1141831Y4797552D01*
X1140307Y4794402D01*
X1138631Y4790084D01*
X1137666Y4785410D01*
X1137462Y4780534D01*
X1137970Y4775657D01*
X1139139Y4770882D01*
X1140968Y4766462D01*
X1143406Y4762500D01*
X1146403Y4759198D01*
X1150569Y4756048D01*
X1154887Y4753559D01*
X1159357Y4751781D01*
X1163929Y4750714D01*
X1168552Y4750358D01*
X1173124Y4750714D01*
X1177645Y4751882D01*
X1182065Y4753711D01*
X1188415Y4759045D01*
X1201826Y4771593D01*
X1244092Y4812741D01*
X1307185Y4875682D01*
X1332331Y4900320D01*
X1341374Y4908651D01*
X1348486Y4914747D01*
X1354124Y4918964D01*
X1358646Y4921504D01*
X1362405Y4922723D01*
X1365808Y4922926D01*
X1369161Y4922367D01*
X1372920Y4921402D01*
X1379118Y4919268D01*
X1383893Y4916322D01*
X1387754Y4912106D01*
X1391259Y4906213D01*
X1393190Y4901844D01*
X1394307Y4897628D01*
X1394612Y4893564D01*
X1394155Y4889500D01*
X1392834Y4885486D01*
X1390700Y4881321D01*
X1387703Y4877104D01*
X1383842Y4872634D01*
X1380185Y4868875D01*
X1377797Y4867198D01*
X1376019Y4867198D01*
X1374038Y4868672D01*
X1370330Y4870805D01*
X1365961Y4871567D01*
X1361643Y4870856D01*
X1355852Y4867452D01*
X1353007Y4866690D01*
X1348943Y4866589D01*
X1331722Y4867960D01*
X1322078Y4858766D01*
X1362354Y4858766D01*
X1362811Y4861102D01*
X1365554Y4861814D01*
X1367028Y4861204D01*
X1372158Y4857242D01*
X1375257Y4854346D01*
X1378915Y4850485D01*
X1380744Y4847945D01*
X1380998Y4846269D01*
X1379880Y4845100D01*
X1377442Y4843729D01*
X1375308Y4843881D01*
X1372514Y4845964D01*
X1367942Y4850536D01*
X1364081Y4855210D01*
X1362354Y4858766D01*
X1322078Y4858766D01*
X1315313Y4852568D01*
X1311300Y4849571D01*
X1308303Y4848199D01*
X1303528Y4848352D01*
X1301191Y4847590D01*
X1298448Y4845761D01*
X1295146Y4842713D01*
X1291082Y4838141D01*
X1289100Y4834229D01*
X1289064Y4832858D01*
X1300988Y4832858D01*
X1301292Y4834128D01*
X1302207Y4835245D01*
X1304239Y4836820D01*
X1306576Y4836414D01*
X1310284Y4833518D01*
X1322832Y4821377D01*
X1326591Y4818481D01*
X1328877Y4818075D01*
X1330909Y4819599D01*
X1332484Y4821580D01*
X1332382Y4823612D01*
X1330096Y4826711D01*
X1316431Y4840782D01*
X1330502Y4853686D01*
X1334566Y4856581D01*
X1338326Y4858105D01*
X1341983Y4858207D01*
X1345844Y4856835D01*
X1350264Y4853940D01*
X1355547Y4849520D01*
X1370025Y4835296D01*
X1374495Y4829962D01*
X1376426Y4825949D01*
X1376730Y4821783D01*
X1376273Y4817922D01*
X1374902Y4814468D01*
X1372260Y4810810D01*
X1359458Y4797755D01*
X1348079Y4808677D01*
X1344879Y4811166D01*
X1342136Y4812842D01*
X1340256Y4813452D01*
X1337411Y4812284D01*
X1337716Y4808982D01*
X1341069Y4803698D01*
X1347368Y4796637D01*
X1353058Y4790744D01*
X1355750Y4787239D01*
X1355953Y4785106D01*
X1354277Y4783124D01*
X1353108Y4782261D01*
X1351788Y4782007D01*
X1350060Y4782616D01*
X1347622Y4784242D01*
X1344168Y4787188D01*
X1333093Y4797856D01*
X1316736Y4814265D01*
X1306118Y4825339D01*
X1303172Y4828743D01*
X1301546Y4831181D01*
X1300988Y4832858D01*
X1289064Y4832858D01*
X1288999Y4830419D01*
X1290624Y4826203D01*
X1291285Y4823815D01*
X1290167Y4820920D01*
X1286764Y4816551D01*
X1275638Y4804562D01*
X1271727Y4799736D01*
X1269085Y4795824D01*
X1268120Y4793386D01*
X1268652Y4791303D01*
X1278280Y4791303D01*
X1280769Y4795824D01*
X1287627Y4804003D01*
X1295146Y4811826D01*
X1299819Y4815332D01*
X1301292Y4814671D01*
X1303172Y4813096D01*
X1303782Y4811471D01*
X1302766Y4809032D01*
X1299870Y4805375D01*
X1294739Y4800041D01*
X1288034Y4793589D01*
X1283411Y4790186D01*
X1280363Y4789525D01*
X1278280Y4791303D01*
X1268652Y4791303D01*
X1269339Y4788611D01*
X1272489Y4784242D01*
X1276858Y4781143D01*
X1281734Y4779924D01*
X1285189Y4780432D01*
X1288846Y4782312D01*
X1293520Y4786071D01*
X1312062Y4804206D01*
X1322832Y4793030D01*
X1310386Y4780127D01*
X1305560Y4774844D01*
X1301597Y4769967D01*
X1298905Y4766056D01*
X1297940Y4763617D01*
X1298484Y4761484D01*
X1308100Y4761484D01*
X1310589Y4766106D01*
X1317447Y4774234D01*
X1325168Y4782058D01*
X1330096Y4785512D01*
X1330756Y4785309D01*
X1332128Y4783785D01*
X1332687Y4782718D01*
X1332433Y4780838D01*
X1330756Y4777994D01*
X1327658Y4774234D01*
X1323136Y4769662D01*
X1316431Y4763414D01*
X1312265Y4760315D01*
X1309776Y4759807D01*
X1308100Y4761484D01*
X1298484Y4761484D01*
X1299159Y4758842D01*
X1302258Y4754524D01*
X1306576Y4751374D01*
X1311300Y4750155D01*
X1314602Y4750714D01*
X1318361Y4752644D01*
X1323086Y4756353D01*
X1336395Y4768748D01*
X1340612Y4772050D01*
X1343304Y4772761D01*
X1345590Y4771593D01*
X1348689Y4769561D01*
X1351229Y4769307D01*
X1354429Y4771186D01*
X1359408Y4775504D01*
X1362659Y4778756D01*
X1364996Y4781753D01*
X1366418Y4784445D01*
X1367434Y4789627D01*
X1369212Y4792929D01*
X1372057Y4796891D01*
X1376070Y4801412D01*
X1382217Y4808931D01*
X1385824Y4815890D01*
X1386890Y4822494D01*
X1385620Y4828997D01*
X1384706Y4831842D01*
X1384655Y4834178D01*
X1385519Y4836414D01*
X1389938Y4842916D01*
X1390853Y4846370D01*
X1390192Y4850028D01*
X1386281Y4857648D01*
X1386027Y4859934D01*
X1387500Y4862322D01*
X1395272Y4870907D01*
X1398727Y4876088D01*
X1401318Y4881473D01*
X1402994Y4887061D01*
X1403807Y4892700D01*
X1403654Y4898339D01*
X1402588Y4903927D01*
X1400606Y4909413D01*
X1398066Y4914087D01*
X1395018Y4918303D01*
X1391615Y4921961D01*
X1387805Y4925161D01*
X1383690Y4927803D01*
X1379321Y4929835D01*
X1374749Y4931308D01*
X1370025Y4932172D01*
X1365199Y4932375D01*
X1360322Y4931968D01*
X1355496Y4930851D01*
X1350670Y4929073D01*
X1348384Y4927600D01*
X1339850Y4920488D01*
X1325524Y4907178D01*
X1304899Y4887163D01*
X1209497Y4792421D01*
X1198219Y4781550D01*
X1189228Y4773218D01*
X1182166Y4767173D01*
X1176680Y4763109D01*
X1174394Y4761687D01*
X1170533Y4760061D01*
X1167333Y4759604D01*
X1164386Y4760112D01*
X1159611Y4761941D01*
X1154430Y4765192D01*
X1150467Y4769866D01*
X1147978Y4775606D01*
X1147114Y4782159D01*
X1147521Y4787544D01*
X1148689Y4790846D01*
X1150416Y4791811D01*
X1156004Y4788001D01*
X1160424Y4787544D01*
X1165098Y4788814D01*
X1169212Y4791811D01*
X1171194Y4793538D01*
X1173530Y4794961D01*
X1175918Y4795875D01*
X1178102Y4796231D01*
X1181557Y4797399D01*
X1186942Y4801311D01*
X1194968Y4808524D01*
X1213510Y4826660D01*
X1223619Y4836261D01*
X1227074Y4839208D01*
X1229868Y4841138D01*
X1232103Y4842306D01*
X1234135Y4842814D01*
X1239570Y4843170D01*
X1242923Y4844542D01*
X1246682Y4847285D01*
X1251610Y4851806D01*
X1256538Y4856886D01*
X1259281Y4860544D01*
X1260246Y4863744D01*
X1259992Y4869688D01*
X1260398Y4871974D01*
X1261872Y4874717D01*
X1264716Y4878476D01*
X1269390Y4883759D01*
X1285798Y4900726D01*
X1309370Y4924552D01*
X1324965Y4940757D01*
X1329994Y4946294D01*
X1333449Y4950460D01*
X1335582Y4953508D01*
X1336598Y4955743D01*
X1337106Y4960366D01*
X1339138Y4964125D01*
X1343355Y4969357D01*
X1357172Y4984394D01*
X1361998Y4990642D01*
X1365300Y4996332D01*
X1369517Y5007152D01*
X1371650Y5011775D01*
X1373835Y5015788D01*
X1375816Y5018684D01*
X1379474Y5025034D01*
X1379067Y5029301D01*
G37*
G36*
X1092809Y4981092D02*
G01*
X1089152Y4977942D01*
X1065072Y4954727D01*
X1023619Y4913985D01*
X970787Y4861509D01*
X906627Y4797145D01*
X857910Y4747361D01*
X850900Y4739538D01*
X851103Y4738573D01*
X851662Y4737811D01*
X852424Y4737303D01*
X853440Y4737100D01*
X854710Y4737963D01*
X862126Y4744669D01*
X892759Y4774184D01*
X937564Y4818329D01*
X1013460Y4893970D01*
X1057706Y4938674D01*
X1087323Y4969205D01*
X1094028Y4976622D01*
X1094892Y4977892D01*
X1094740Y4979162D01*
X1094282Y4980178D01*
X1093622Y4980838D01*
G37*
G36*
X1341780Y4843018D02*
G01*
X1340154Y4842002D01*
X1338935Y4839462D01*
X1339697Y4836058D01*
X1342390Y4831842D01*
X1347165Y4826660D01*
X1350924Y4823206D01*
X1354074Y4820920D01*
X1356563Y4819700D01*
X1358341Y4819650D01*
X1360779Y4821580D01*
X1360728Y4824526D01*
X1358036Y4828844D01*
X1352600Y4834686D01*
X1347216Y4839817D01*
X1343863Y4842459D01*
G37*
D36*
X2995929Y6535420D02*
G01*
X3001772Y6538213D01*
X3007613Y6544055D01*
X3010408Y6549644D01*
X3010408Y6561328D01*
X3007613Y6567170D01*
X3001772Y6572758D01*
X2995929Y6575805D01*
X2987293Y6578600D01*
X2973070Y6578600D01*
X2964179Y6575805D01*
X2958591Y6572758D01*
X2952750Y6567170D01*
X2949956Y6561328D01*
X2949956Y6549644D01*
X2952750Y6544055D01*
X2958591Y6538213D01*
X2964179Y6535420D01*
X2973070Y6535420D01*
X2973070Y6549644D02*
G01*
X2973070Y6535420D01*
X3010408Y6516370D02*
G01*
X2949956Y6516370D01*
X3010408Y6516370D02*
G01*
X2949956Y6475729D01*
X3010408Y6475729D02*
G01*
X2949956Y6475729D01*
X3010408Y6456679D02*
G01*
X2949956Y6456679D01*
X3010408Y6456679D02*
G01*
X3010408Y6436613D01*
X3007613Y6427978D01*
X3001772Y6422136D01*
X2995929Y6419342D01*
X2987293Y6416294D01*
X2973070Y6416294D01*
X2964179Y6419342D01*
X2958591Y6422136D01*
X2952750Y6427978D01*
X2949956Y6436613D01*
X2949956Y6456679D01*
X2995929Y6306820D02*
G01*
X3001772Y6309613D01*
X3007613Y6315455D01*
X3010408Y6321044D01*
X3010408Y6332728D01*
X3007613Y6338570D01*
X3001772Y6344157D01*
X2995929Y6347205D01*
X2987293Y6350000D01*
X2973070Y6350000D01*
X2964179Y6347205D01*
X2958591Y6344157D01*
X2952750Y6338570D01*
X2949956Y6332728D01*
X2949956Y6321044D01*
X2952750Y6315455D01*
X2958591Y6309613D01*
X2964179Y6306820D01*
X2973070Y6306820D01*
X2973070Y6321044D02*
G01*
X2973070Y6306820D01*
X3010408Y6287770D02*
G01*
X2949956Y6287770D01*
X3010408Y6287770D02*
G01*
X3010408Y6261607D01*
X3007613Y6252971D01*
X3004820Y6250178D01*
X2998977Y6247129D01*
X2990341Y6247129D01*
X2984500Y6250178D01*
X2981706Y6252971D01*
X2978658Y6261607D01*
X2978658Y6287770D01*
X3010408Y6210807D02*
G01*
X3007613Y6219444D01*
X2998977Y6225286D01*
X2984500Y6228079D01*
X2975863Y6228079D01*
X2961386Y6225286D01*
X2952750Y6219444D01*
X2949956Y6210807D01*
X2949956Y6205220D01*
X2952750Y6196329D01*
X2961386Y6190742D01*
X2975863Y6187694D01*
X2984500Y6187694D01*
X2998977Y6190742D01*
X3007613Y6196329D01*
X3010408Y6205220D01*
X3010408Y6210807D01*
X3010408Y6096000D02*
G01*
X2949956Y6072886D01*
X3010408Y6049771D02*
G01*
X2949956Y6072886D01*
X2995929Y5987542D02*
G01*
X3001772Y5990336D01*
X3007613Y5996178D01*
X3010408Y6002020D01*
X3010408Y6013450D01*
X3007613Y6019292D01*
X3001772Y6024879D01*
X2995929Y6027928D01*
X2987293Y6030721D01*
X2973070Y6030721D01*
X2964179Y6027928D01*
X2958591Y6024879D01*
X2952750Y6019292D01*
X2949956Y6013450D01*
X2949956Y6002020D01*
X2952750Y5996178D01*
X2958591Y5990336D01*
X2964179Y5987542D01*
X2995929Y5925057D02*
G01*
X3001772Y5928105D01*
X3007613Y5933694D01*
X3010408Y5939536D01*
X3010408Y5951220D01*
X3007613Y5956807D01*
X3001772Y5962650D01*
X2995929Y5965444D01*
X2987293Y5968492D01*
X2973070Y5968492D01*
X2964179Y5965444D01*
X2958591Y5962650D01*
X2952750Y5956807D01*
X2949956Y5951220D01*
X2949956Y5939536D01*
X2952750Y5933694D01*
X2958591Y5928105D01*
X2964179Y5925057D01*
X3010408Y5791200D02*
G01*
X2949956Y5791200D01*
X3010408Y5791200D02*
G01*
X3010408Y5765292D01*
X3007613Y5756655D01*
X3004820Y5753607D01*
X2998977Y5750813D01*
X2993136Y5750813D01*
X2987293Y5753607D01*
X2984500Y5756655D01*
X2981706Y5765292D01*
X2981706Y5791200D01*
X2981706Y5770879D02*
G01*
X2949956Y5750813D01*
X3010408Y5731763D02*
G01*
X2949956Y5691378D01*
X3010408Y5691378D02*
G01*
X2949956Y5731763D01*
X3010408Y5542279D02*
G01*
X2949956Y5542279D01*
X3010408Y5562600D02*
G01*
X3010408Y5522213D01*
X3010408Y5503163D02*
G01*
X2949956Y5462778D01*
X3010408Y5462778D02*
G01*
X2949956Y5503163D01*
X3010408Y5308600D02*
G01*
X2949956Y5308600D01*
X3010408Y5308600D02*
G01*
X3010408Y5282692D01*
X3007613Y5274055D01*
X3004820Y5271007D01*
X2998977Y5268213D01*
X2993136Y5268213D01*
X2987293Y5271007D01*
X2984500Y5274055D01*
X2981706Y5282692D01*
X2981706Y5308600D01*
X2981706Y5288279D02*
G01*
X2949956Y5268213D01*
X3001772Y5208778D02*
G01*
X3007613Y5214620D01*
X3010408Y5223255D01*
X3010408Y5234686D01*
X3007613Y5243321D01*
X3001772Y5249163D01*
X2995929Y5249163D01*
X2990341Y5246370D01*
X2987293Y5243321D01*
X2984500Y5237479D01*
X2978658Y5220207D01*
X2975863Y5214620D01*
X2973070Y5211571D01*
X2967227Y5208778D01*
X2958591Y5208778D01*
X2952750Y5214620D01*
X2949956Y5223255D01*
X2949956Y5234686D01*
X2952750Y5243321D01*
X2958591Y5249163D01*
X3010408Y5169407D02*
G01*
X2949956Y5169407D01*
X3010408Y5189728D02*
G01*
X3010408Y5149342D01*
X1122679Y5523229D02*
G01*
X1119886Y5529071D01*
X1114044Y5534913D01*
X1108455Y5537707D01*
X1096771Y5537707D01*
X1090929Y5534913D01*
X1085342Y5529071D01*
X1082294Y5523229D01*
X1079500Y5514594D01*
X1079500Y5500370D01*
X1082294Y5491479D01*
X1085342Y5485892D01*
X1090929Y5480050D01*
X1096771Y5477255D01*
X1108455Y5477255D01*
X1114044Y5480050D01*
X1119886Y5485892D01*
X1122679Y5491479D01*
X1122679Y5500370D01*
X1108455Y5500370D02*
G01*
X1122679Y5500370D01*
X1141729Y5537707D02*
G01*
X1141729Y5477255D01*
X1141729Y5537707D02*
G01*
X1182370Y5477255D01*
X1182370Y5537707D02*
G01*
X1182370Y5477255D01*
X1201420Y5537707D02*
G01*
X1201420Y5477255D01*
X1201420Y5537707D02*
G01*
X1221486Y5537707D01*
X1230121Y5534913D01*
X1235963Y5529071D01*
X1238757Y5523229D01*
X1241805Y5514594D01*
X1241805Y5500370D01*
X1238757Y5491479D01*
X1235963Y5485892D01*
X1230121Y5480050D01*
X1221486Y5477255D01*
X1201420Y5477255D01*
X1346200Y5537707D02*
G01*
X1369313Y5477255D01*
X1392428Y5537707D02*
G01*
X1369313Y5477255D01*
X1454657Y5523229D02*
G01*
X1451863Y5529071D01*
X1446021Y5534913D01*
X1440179Y5537707D01*
X1428750Y5537707D01*
X1422907Y5534913D01*
X1417320Y5529071D01*
X1414271Y5523229D01*
X1411478Y5514594D01*
X1411478Y5500370D01*
X1414271Y5491479D01*
X1417320Y5485892D01*
X1422907Y5480050D01*
X1428750Y5477255D01*
X1440179Y5477255D01*
X1446021Y5480050D01*
X1451863Y5485892D01*
X1454657Y5491479D01*
X1517142Y5523229D02*
G01*
X1514094Y5529071D01*
X1508505Y5534913D01*
X1502663Y5537707D01*
X1490979Y5537707D01*
X1485392Y5534913D01*
X1479550Y5529071D01*
X1476755Y5523229D01*
X1473707Y5514594D01*
X1473707Y5500370D01*
X1476755Y5491479D01*
X1479550Y5485892D01*
X1485392Y5480050D01*
X1490979Y5477255D01*
X1502663Y5477255D01*
X1508505Y5480050D01*
X1514094Y5485892D01*
X1517142Y5491479D01*
X1643379Y5523229D02*
G01*
X1640586Y5529071D01*
X1634744Y5534913D01*
X1629155Y5537707D01*
X1617471Y5537707D01*
X1611629Y5534913D01*
X1606042Y5529071D01*
X1602994Y5523229D01*
X1600200Y5514594D01*
X1600200Y5500370D01*
X1602994Y5491479D01*
X1606042Y5485892D01*
X1611629Y5480050D01*
X1617471Y5477255D01*
X1629155Y5477255D01*
X1634744Y5480050D01*
X1640586Y5485892D01*
X1643379Y5491479D01*
X1643379Y5500370D01*
X1629155Y5500370D02*
G01*
X1643379Y5500370D01*
X1662429Y5537707D02*
G01*
X1662429Y5477255D01*
X1662429Y5537707D02*
G01*
X1688592Y5537707D01*
X1697228Y5534913D01*
X1700021Y5532120D01*
X1703070Y5526278D01*
X1703070Y5517642D01*
X1700021Y5511800D01*
X1697228Y5509005D01*
X1688592Y5505957D01*
X1662429Y5505957D01*
X1722120Y5526278D02*
G01*
X1727707Y5529071D01*
X1736344Y5537707D01*
X1736344Y5477255D01*
X2577591Y5588000D02*
G01*
X2638043Y5588000D01*
X2577591Y5588000D02*
G01*
X2577591Y5613907D01*
X2580386Y5622544D01*
X2583179Y5625592D01*
X2589022Y5628386D01*
X2597658Y5628386D01*
X2603500Y5625592D01*
X2606293Y5622544D01*
X2609341Y5613907D01*
X2609341Y5588000D01*
X2577591Y5647436D02*
G01*
X2638043Y5647436D01*
X2577591Y5647436D02*
G01*
X2577591Y5673344D01*
X2580386Y5681979D01*
X2583179Y5685028D01*
X2589022Y5687821D01*
X2594863Y5687821D01*
X2600706Y5685028D01*
X2603500Y5681979D01*
X2606293Y5673344D01*
X2606293Y5647436D01*
X2606293Y5667755D02*
G01*
X2638043Y5687821D01*
X2577591Y5724144D02*
G01*
X2580386Y5718555D01*
X2586227Y5712713D01*
X2592070Y5709920D01*
X2600706Y5706871D01*
X2614929Y5706871D01*
X2623820Y5709920D01*
X2629408Y5712713D01*
X2635250Y5718555D01*
X2638043Y5724144D01*
X2638043Y5735828D01*
X2635250Y5741670D01*
X2629408Y5747257D01*
X2623820Y5750305D01*
X2614929Y5753100D01*
X2600706Y5753100D01*
X2592070Y5750305D01*
X2586227Y5747257D01*
X2580386Y5741670D01*
X2577591Y5735828D01*
X2577591Y5724144D01*
X2592070Y5815329D02*
G01*
X2586227Y5812536D01*
X2580386Y5806694D01*
X2577591Y5801105D01*
X2577591Y5789421D01*
X2580386Y5783579D01*
X2586227Y5777992D01*
X2592070Y5774944D01*
X2600706Y5772150D01*
X2614929Y5772150D01*
X2623820Y5774944D01*
X2629408Y5777992D01*
X2635250Y5783579D01*
X2638043Y5789421D01*
X2638043Y5801105D01*
X2635250Y5806694D01*
X2629408Y5812536D01*
X2623820Y5815329D01*
X2614929Y5815329D01*
X2614929Y5801105D02*
G01*
X2614929Y5815329D01*
X2577591Y5834379D02*
G01*
X2638043Y5834379D01*
X2577591Y5834379D02*
G01*
X2577591Y5860542D01*
X2580386Y5869178D01*
X2583179Y5871971D01*
X2589022Y5875020D01*
X2594863Y5875020D01*
X2600706Y5871971D01*
X2603500Y5869178D01*
X2606293Y5860542D01*
X2606293Y5834379D01*
X2606293Y5854700D02*
G01*
X2638043Y5875020D01*
X2577591Y5916929D02*
G01*
X2638043Y5894070D01*
X2577591Y5916929D02*
G01*
X2638043Y5940044D01*
X2617977Y5902705D02*
G01*
X2617977Y5931407D01*
X2577591Y5959094D02*
G01*
X2638043Y5959094D01*
X2577591Y5959094D02*
G01*
X2638043Y5982207D01*
X2577591Y6005321D02*
G01*
X2638043Y5982207D01*
X2577591Y6005321D02*
G01*
X2638043Y6005321D01*
X2577591Y6047486D02*
G01*
X2638043Y6024371D01*
X2577591Y6047486D02*
G01*
X2638043Y6070600D01*
X2617977Y6033007D02*
G01*
X2617977Y6061963D01*
X2577591Y6109970D02*
G01*
X2638043Y6109970D01*
X2577591Y6089650D02*
G01*
X2577591Y6130036D01*
X2577591Y6166357D02*
G01*
X2580386Y6160770D01*
X2586227Y6154928D01*
X2592070Y6151879D01*
X2600706Y6149086D01*
X2614929Y6149086D01*
X2623820Y6151879D01*
X2629408Y6154928D01*
X2635250Y6160770D01*
X2638043Y6166357D01*
X2638043Y6178042D01*
X2635250Y6183629D01*
X2629408Y6189471D01*
X2623820Y6192520D01*
X2614929Y6195313D01*
X2600706Y6195313D01*
X2592070Y6192520D01*
X2586227Y6189471D01*
X2580386Y6183629D01*
X2577591Y6178042D01*
X2577591Y6166357D01*
X2577591Y6214363D02*
G01*
X2638043Y6214363D01*
X2577591Y6214363D02*
G01*
X2577591Y6240271D01*
X2580386Y6248907D01*
X2583179Y6251955D01*
X2589022Y6254750D01*
X2594863Y6254750D01*
X2600706Y6251955D01*
X2603500Y6248907D01*
X2606293Y6240271D01*
X2606293Y6214363D01*
X2606293Y6234429D02*
G01*
X2638043Y6254750D01*
X1335786Y5427471D02*
G01*
X1329944Y5433313D01*
X1321307Y5436107D01*
X1309878Y5436107D01*
X1301242Y5433313D01*
X1295400Y5427471D01*
X1295400Y5421629D01*
X1298194Y5416042D01*
X1301242Y5412994D01*
X1306829Y5410200D01*
X1324355Y5404357D01*
X1329944Y5401563D01*
X1332992Y5398770D01*
X1335786Y5392928D01*
X1335786Y5384292D01*
X1329944Y5378450D01*
X1321307Y5375655D01*
X1309878Y5375655D01*
X1301242Y5378450D01*
X1295400Y5384292D01*
X1354836Y5436107D02*
G01*
X1354836Y5375655D01*
X1354836Y5436107D02*
G01*
X1392428Y5436107D01*
X1354836Y5407405D02*
G01*
X1377950Y5407405D01*
X1354836Y5375655D02*
G01*
X1392428Y5375655D01*
X1411478Y5436107D02*
G01*
X1411478Y5375655D01*
X1411478Y5436107D02*
G01*
X1437386Y5436107D01*
X1446021Y5433313D01*
X1449070Y5430520D01*
X1451863Y5424678D01*
X1451863Y5418836D01*
X1449070Y5412994D01*
X1446021Y5410200D01*
X1437386Y5407405D01*
X1411478Y5407405D01*
X1431544Y5407405D02*
G01*
X1451863Y5375655D01*
X1470913Y5436107D02*
G01*
X1494028Y5375655D01*
X1517142Y5436107D02*
G01*
X1494028Y5375655D01*
X1553463Y5436107D02*
G01*
X1547621Y5433313D01*
X1541779Y5427471D01*
X1538986Y5421629D01*
X1536192Y5412994D01*
X1536192Y5398770D01*
X1538986Y5389879D01*
X1541779Y5384292D01*
X1547621Y5378450D01*
X1553463Y5375655D01*
X1564894Y5375655D01*
X1570736Y5378450D01*
X1576578Y5384292D01*
X1579371Y5389879D01*
X1582420Y5398770D01*
X1582420Y5412994D01*
X1579371Y5421629D01*
X1576578Y5427471D01*
X1570736Y5433313D01*
X1564894Y5436107D01*
X1553463Y5436107D01*
X2413000Y6769562D02*
G01*
X2413000Y6721071D01*
X2413000Y6769562D02*
G01*
X2433782Y6769562D01*
X2440708Y6767253D01*
X2443017Y6764944D01*
X2445326Y6760324D01*
X2445326Y6755706D01*
X2443017Y6751088D01*
X2440708Y6748779D01*
X2433782Y6746471D01*
X2413000Y6746471D01*
X2429164Y6746471D02*
G01*
X2445326Y6721071D01*
X2460566Y6760324D02*
G01*
X2465184Y6762635D01*
X2472113Y6769562D01*
X2472113Y6721071D01*
X2491971Y6730306D02*
G01*
X2489662Y6727997D01*
X2487353Y6730306D01*
X2489662Y6732615D01*
X2491971Y6730306D01*
X2491971Y6725688D01*
X2487353Y6721071D01*
X2507211Y6769562D02*
G01*
X2507211Y6721071D01*
X2507211Y6769562D02*
G01*
X2527993Y6769562D01*
X2534920Y6767253D01*
X2537228Y6764944D01*
X2539537Y6760324D01*
X2539537Y6755706D01*
X2537228Y6751088D01*
X2534920Y6748779D01*
X2527993Y6746471D01*
X2507211Y6746471D01*
X2523375Y6746471D02*
G01*
X2539537Y6721071D01*
X2557086Y6758015D02*
G01*
X2557086Y6760324D01*
X2559395Y6764944D01*
X2561704Y6767253D01*
X2566324Y6769562D01*
X2575559Y6769562D01*
X2580177Y6767253D01*
X2582486Y6764944D01*
X2584795Y6760324D01*
X2584795Y6755706D01*
X2582486Y6751088D01*
X2577868Y6744162D01*
X2554777Y6721071D01*
X2587104Y6721071D01*
X2606964Y6730306D02*
G01*
X2604655Y6727997D01*
X2602344Y6730306D01*
X2604655Y6732615D01*
X2606964Y6730306D01*
X2606964Y6725688D01*
X2602344Y6721071D01*
X2622204Y6769562D02*
G01*
X2622204Y6721071D01*
X2622204Y6769562D02*
G01*
X2642984Y6769562D01*
X2649913Y6767253D01*
X2652222Y6764944D01*
X2654531Y6760324D01*
X2654531Y6755706D01*
X2652222Y6751088D01*
X2649913Y6748779D01*
X2642984Y6746471D01*
X2622204Y6746471D01*
X2638366Y6746471D02*
G01*
X2654531Y6721071D01*
X2674388Y6769562D02*
G01*
X2699788Y6769562D01*
X2685935Y6751088D01*
X2692862Y6751088D01*
X2697479Y6748779D01*
X2699788Y6746471D01*
X2702097Y6739544D01*
X2702097Y6734924D01*
X2699788Y6727997D01*
X2695171Y6723379D01*
X2688244Y6721071D01*
X2681315Y6721071D01*
X2674388Y6723379D01*
X2672079Y6725688D01*
X2669771Y6730306D01*
X2752897Y6741853D02*
G01*
X2794462Y6741853D01*
X2847571Y6758015D02*
G01*
X2847571Y6760324D01*
X2849879Y6764944D01*
X2852188Y6767253D01*
X2856806Y6769562D01*
X2866044Y6769562D01*
X2870662Y6767253D01*
X2872971Y6764944D01*
X2875279Y6760324D01*
X2875279Y6755706D01*
X2872971Y6751088D01*
X2868353Y6744162D01*
X2845262Y6721071D01*
X2877588Y6721071D01*
X2895137Y6758015D02*
G01*
X2895137Y6760324D01*
X2897446Y6764944D01*
X2899755Y6767253D01*
X2904375Y6769562D01*
X2913611Y6769562D01*
X2918228Y6767253D01*
X2920537Y6764944D01*
X2922846Y6760324D01*
X2922846Y6755706D01*
X2920537Y6751088D01*
X2915920Y6744162D01*
X2892828Y6721071D01*
X2925155Y6721071D01*
X2954251Y6769562D02*
G01*
X2947324Y6767253D01*
X2942704Y6760324D01*
X2940395Y6748779D01*
X2940395Y6741853D01*
X2942704Y6730306D01*
X2947324Y6723379D01*
X2954251Y6721071D01*
X2958868Y6721071D01*
X2965795Y6723379D01*
X2970415Y6730306D01*
X2972724Y6741853D01*
X2972724Y6748779D01*
X2970415Y6760324D01*
X2965795Y6767253D01*
X2958868Y6769562D01*
X2954251Y6769562D01*
D37*
X774700Y6771386D02*
G01*
X774700Y6733286D01*
X774700Y6771386D02*
G01*
X790955Y6771386D01*
X796544Y6769608D01*
X798321Y6767829D01*
X800100Y6764020D01*
X800100Y6758686D01*
X798321Y6754876D01*
X796544Y6753097D01*
X790955Y6751320D01*
X774700Y6751320D01*
X812037Y6771386D02*
G01*
X812037Y6733286D01*
X835152Y6771386D02*
G01*
X831342Y6769608D01*
X827786Y6765797D01*
X826007Y6762242D01*
X824229Y6756908D01*
X824229Y6747763D01*
X826007Y6742176D01*
X827786Y6738620D01*
X831342Y6735063D01*
X835152Y6733286D01*
X842263Y6733286D01*
X846073Y6735063D01*
X849629Y6738620D01*
X851407Y6742176D01*
X853186Y6747763D01*
X853186Y6756908D01*
X851407Y6762242D01*
X849629Y6765797D01*
X846073Y6769608D01*
X842263Y6771386D01*
X835152Y6771386D01*
X865123Y6720331D02*
G01*
X897889Y6720331D01*
X911860Y6762242D02*
G01*
X911860Y6764020D01*
X913637Y6767829D01*
X915415Y6769608D01*
X918971Y6771386D01*
X926337Y6771386D01*
X929894Y6769608D01*
X931671Y6767829D01*
X933704Y6764020D01*
X933704Y6760463D01*
X931671Y6756908D01*
X928115Y6751320D01*
X910081Y6733286D01*
X935481Y6733286D01*
X774700Y6631686D02*
G01*
X774700Y6593586D01*
X774700Y6631686D02*
G01*
X790955Y6631686D01*
X796544Y6629908D01*
X798321Y6628129D01*
X800100Y6624320D01*
X800100Y6618986D01*
X798321Y6615176D01*
X796544Y6613397D01*
X790955Y6611620D01*
X774700Y6611620D01*
X812037Y6631686D02*
G01*
X812037Y6593586D01*
X835152Y6631686D02*
G01*
X831342Y6629908D01*
X827786Y6626097D01*
X826007Y6622542D01*
X824229Y6617208D01*
X824229Y6608063D01*
X826007Y6602476D01*
X827786Y6598920D01*
X831342Y6595363D01*
X835152Y6593586D01*
X842263Y6593586D01*
X846073Y6595363D01*
X849629Y6598920D01*
X851407Y6602476D01*
X853186Y6608063D01*
X853186Y6617208D01*
X851407Y6622542D01*
X849629Y6626097D01*
X846073Y6629908D01*
X842263Y6631686D01*
X835152Y6631686D01*
X865123Y6580631D02*
G01*
X897889Y6580631D01*
X913637Y6631686D02*
G01*
X933704Y6631686D01*
X922781Y6617208D01*
X928115Y6617208D01*
X931671Y6615176D01*
X933704Y6613397D01*
X935481Y6608063D01*
X935481Y6604508D01*
X933704Y6598920D01*
X929894Y6595363D01*
X924560Y6593586D01*
X918971Y6593586D01*
X913637Y6595363D01*
X911860Y6597142D01*
X910081Y6600697D01*
X774700Y6504686D02*
G01*
X774700Y6466586D01*
X774700Y6504686D02*
G01*
X790955Y6504686D01*
X796544Y6502907D01*
X798321Y6501129D01*
X800100Y6497320D01*
X800100Y6491986D01*
X798321Y6488176D01*
X796544Y6486397D01*
X790955Y6484620D01*
X774700Y6484620D01*
X812037Y6504686D02*
G01*
X812037Y6466586D01*
X835152Y6504686D02*
G01*
X831342Y6502907D01*
X827786Y6499097D01*
X826007Y6495542D01*
X824229Y6490207D01*
X824229Y6481063D01*
X826007Y6475476D01*
X827786Y6471920D01*
X831342Y6468363D01*
X835152Y6466586D01*
X842263Y6466586D01*
X846073Y6468363D01*
X849629Y6471920D01*
X851407Y6475476D01*
X853186Y6481063D01*
X853186Y6490207D01*
X851407Y6495542D01*
X849629Y6499097D01*
X846073Y6502907D01*
X842263Y6504686D01*
X835152Y6504686D01*
X865123Y6453631D02*
G01*
X897889Y6453631D01*
X928115Y6504686D02*
G01*
X910081Y6479286D01*
X937260Y6479286D01*
X928115Y6504686D02*
G01*
X928115Y6466586D01*
X787400Y6352286D02*
G01*
X787400Y6314186D01*
X787400Y6352286D02*
G01*
X803655Y6352286D01*
X809244Y6350507D01*
X811021Y6348729D01*
X812800Y6344920D01*
X812800Y6339586D01*
X811021Y6335776D01*
X809244Y6333997D01*
X803655Y6332220D01*
X787400Y6332220D01*
X824737Y6352286D02*
G01*
X824737Y6314186D01*
X847852Y6352286D02*
G01*
X844042Y6350507D01*
X840486Y6346697D01*
X838707Y6343142D01*
X836929Y6337807D01*
X836929Y6328663D01*
X838707Y6323076D01*
X840486Y6319520D01*
X844042Y6315963D01*
X847852Y6314186D01*
X854963Y6314186D01*
X858773Y6315963D01*
X862329Y6319520D01*
X864107Y6323076D01*
X865886Y6328663D01*
X865886Y6337807D01*
X864107Y6343142D01*
X862329Y6346697D01*
X858773Y6350507D01*
X854963Y6352286D01*
X847852Y6352286D01*
X877823Y6301231D02*
G01*
X910589Y6301231D01*
X944371Y6352286D02*
G01*
X926337Y6352286D01*
X924560Y6335776D01*
X926337Y6337807D01*
X931671Y6339586D01*
X937260Y6339586D01*
X942594Y6337807D01*
X946404Y6333997D01*
X948181Y6328663D01*
X948181Y6325107D01*
X946404Y6319520D01*
X942594Y6315963D01*
X937260Y6314186D01*
X931671Y6314186D01*
X926337Y6315963D01*
X924560Y6317742D01*
X922781Y6321297D01*
X787400Y6225286D02*
G01*
X787400Y6187186D01*
X787400Y6225286D02*
G01*
X803655Y6225286D01*
X809244Y6223507D01*
X811021Y6221729D01*
X812800Y6217920D01*
X812800Y6212586D01*
X811021Y6208776D01*
X809244Y6206997D01*
X803655Y6205220D01*
X787400Y6205220D01*
X824737Y6225286D02*
G01*
X824737Y6187186D01*
X847852Y6225286D02*
G01*
X844042Y6223507D01*
X840486Y6219697D01*
X838707Y6216142D01*
X836929Y6210807D01*
X836929Y6201663D01*
X838707Y6196076D01*
X840486Y6192520D01*
X844042Y6188963D01*
X847852Y6187186D01*
X854963Y6187186D01*
X858773Y6188963D01*
X862329Y6192520D01*
X864107Y6196076D01*
X865886Y6201663D01*
X865886Y6210807D01*
X864107Y6216142D01*
X862329Y6219697D01*
X858773Y6223507D01*
X854963Y6225286D01*
X847852Y6225286D01*
X877823Y6174231D02*
G01*
X910589Y6174231D01*
X944371Y6219697D02*
G01*
X942594Y6223507D01*
X937260Y6225286D01*
X933704Y6225286D01*
X928115Y6223507D01*
X924560Y6217920D01*
X922781Y6208776D01*
X922781Y6199886D01*
X924560Y6192520D01*
X928115Y6188963D01*
X933704Y6187186D01*
X935481Y6187186D01*
X940815Y6188963D01*
X944371Y6192520D01*
X946404Y6198107D01*
X946404Y6199886D01*
X944371Y6205220D01*
X940815Y6208776D01*
X935481Y6210807D01*
X933704Y6210807D01*
X928115Y6208776D01*
X924560Y6205220D01*
X922781Y6199886D01*
X787400Y6085586D02*
G01*
X787400Y6047486D01*
X787400Y6085586D02*
G01*
X803655Y6085586D01*
X809244Y6083807D01*
X811021Y6082029D01*
X812800Y6078220D01*
X812800Y6072886D01*
X811021Y6069076D01*
X809244Y6067297D01*
X803655Y6065520D01*
X787400Y6065520D01*
X824737Y6085586D02*
G01*
X824737Y6047486D01*
X847852Y6085586D02*
G01*
X844042Y6083807D01*
X840486Y6079997D01*
X838707Y6076442D01*
X836929Y6071107D01*
X836929Y6061963D01*
X838707Y6056376D01*
X840486Y6052820D01*
X844042Y6049263D01*
X847852Y6047486D01*
X854963Y6047486D01*
X858773Y6049263D01*
X862329Y6052820D01*
X864107Y6056376D01*
X865886Y6061963D01*
X865886Y6071107D01*
X864107Y6076442D01*
X862329Y6079997D01*
X858773Y6083807D01*
X854963Y6085586D01*
X847852Y6085586D01*
X877823Y6034531D02*
G01*
X910589Y6034531D01*
X948181Y6085586D02*
G01*
X929894Y6047486D01*
X922781Y6085586D02*
G01*
X948181Y6085586D01*
X787400Y5818886D02*
G01*
X787400Y5780786D01*
X787400Y5818886D02*
G01*
X803655Y5818886D01*
X809244Y5817107D01*
X811021Y5815329D01*
X812800Y5811520D01*
X812800Y5806186D01*
X811021Y5802376D01*
X809244Y5800597D01*
X803655Y5798820D01*
X787400Y5798820D01*
X824737Y5818886D02*
G01*
X824737Y5780786D01*
X847852Y5818886D02*
G01*
X844042Y5817107D01*
X840486Y5813297D01*
X838707Y5809742D01*
X836929Y5804407D01*
X836929Y5795263D01*
X838707Y5789676D01*
X840486Y5786120D01*
X844042Y5782563D01*
X847852Y5780786D01*
X854963Y5780786D01*
X858773Y5782563D01*
X862329Y5786120D01*
X864107Y5789676D01*
X865886Y5795263D01*
X865886Y5804407D01*
X864107Y5809742D01*
X862329Y5813297D01*
X858773Y5817107D01*
X854963Y5818886D01*
X847852Y5818886D01*
X877823Y5767831D02*
G01*
X910589Y5767831D01*
X946404Y5806186D02*
G01*
X944371Y5800597D01*
X940815Y5797042D01*
X935481Y5795263D01*
X933704Y5795263D01*
X928115Y5797042D01*
X924560Y5800597D01*
X922781Y5806186D01*
X922781Y5807963D01*
X924560Y5813297D01*
X928115Y5817107D01*
X933704Y5818886D01*
X935481Y5818886D01*
X940815Y5817107D01*
X944371Y5813297D01*
X946404Y5806186D01*
X946404Y5797042D01*
X944371Y5787897D01*
X940815Y5782563D01*
X935481Y5780786D01*
X931671Y5780786D01*
X926337Y5782563D01*
X924560Y5786120D01*
X787400Y5945886D02*
G01*
X787400Y5907786D01*
X787400Y5945886D02*
G01*
X803655Y5945886D01*
X809244Y5944107D01*
X811021Y5942329D01*
X812800Y5938520D01*
X812800Y5933186D01*
X811021Y5929376D01*
X809244Y5927597D01*
X803655Y5925820D01*
X787400Y5925820D01*
X824737Y5945886D02*
G01*
X824737Y5907786D01*
X847852Y5945886D02*
G01*
X844042Y5944107D01*
X840486Y5940297D01*
X838707Y5936742D01*
X836929Y5931407D01*
X836929Y5922263D01*
X838707Y5916676D01*
X840486Y5913120D01*
X844042Y5909563D01*
X847852Y5907786D01*
X854963Y5907786D01*
X858773Y5909563D01*
X862329Y5913120D01*
X864107Y5916676D01*
X865886Y5922263D01*
X865886Y5931407D01*
X864107Y5936742D01*
X862329Y5940297D01*
X858773Y5944107D01*
X854963Y5945886D01*
X847852Y5945886D01*
X877823Y5894831D02*
G01*
X910589Y5894831D01*
X931671Y5945886D02*
G01*
X926337Y5944107D01*
X924560Y5940297D01*
X924560Y5936742D01*
X926337Y5933186D01*
X929894Y5931407D01*
X937260Y5929376D01*
X942594Y5927597D01*
X946404Y5924042D01*
X948181Y5920486D01*
X948181Y5914897D01*
X946404Y5911342D01*
X944371Y5909563D01*
X939037Y5907786D01*
X931671Y5907786D01*
X926337Y5909563D01*
X924560Y5911342D01*
X922781Y5914897D01*
X922781Y5920486D01*
X924560Y5924042D01*
X928115Y5927597D01*
X933704Y5929376D01*
X940815Y5931407D01*
X944371Y5933186D01*
X946404Y5936742D01*
X946404Y5940297D01*
X944371Y5944107D01*
X939037Y5945886D01*
X931671Y5945886D01*
X787400Y5564886D02*
G01*
X787400Y5526786D01*
X787400Y5564886D02*
G01*
X803655Y5564886D01*
X809244Y5563107D01*
X811021Y5561329D01*
X812800Y5557520D01*
X812800Y5553963D01*
X811021Y5550407D01*
X809244Y5548376D01*
X803655Y5546597D01*
X787400Y5546597D01*
X800100Y5546597D02*
G01*
X812800Y5526786D01*
X824737Y5564886D02*
G01*
X850392Y5526786D01*
X850392Y5564886D02*
G01*
X824737Y5526786D01*
X800100Y5437886D02*
G01*
X800100Y5399786D01*
X787400Y5437886D02*
G01*
X812800Y5437886D01*
X824737Y5437886D02*
G01*
X850392Y5399786D01*
X850392Y5437886D02*
G01*
X824737Y5399786D01*
X815086Y5245100D02*
G01*
X776986Y5230621D01*
X815086Y5215889D02*
G01*
X776986Y5230621D01*
X805942Y5176773D02*
G01*
X809497Y5178552D01*
X813307Y5182107D01*
X815086Y5185918D01*
X815086Y5193029D01*
X813307Y5196839D01*
X809497Y5200395D01*
X805942Y5202173D01*
X800607Y5203952D01*
X791463Y5203952D01*
X785876Y5202173D01*
X782320Y5200395D01*
X778763Y5196839D01*
X776986Y5193029D01*
X776986Y5185918D01*
X778763Y5182107D01*
X782320Y5178552D01*
X785876Y5176773D01*
X805942Y5137404D02*
G01*
X809497Y5139181D01*
X813307Y5142992D01*
X815086Y5146547D01*
X815086Y5153913D01*
X813307Y5157470D01*
X809497Y5161026D01*
X805942Y5162804D01*
X800607Y5164836D01*
X791463Y5164836D01*
X785876Y5162804D01*
X782320Y5161026D01*
X778763Y5157470D01*
X776986Y5153913D01*
X776986Y5146547D01*
X778763Y5142992D01*
X782320Y5139181D01*
X785876Y5137404D01*
X818642Y4963921D02*
G01*
X822197Y4965700D01*
X826007Y4969255D01*
X827786Y4972812D01*
X827786Y4980178D01*
X826007Y4983734D01*
X822197Y4987544D01*
X818642Y4989321D01*
X813307Y4991100D01*
X804163Y4991100D01*
X798576Y4989321D01*
X795020Y4987544D01*
X791463Y4983734D01*
X789686Y4980178D01*
X789686Y4972812D01*
X791463Y4969255D01*
X795020Y4965700D01*
X798576Y4963921D01*
X804163Y4963921D01*
X804163Y4972812D02*
G01*
X804163Y4963921D01*
X827786Y4951729D02*
G01*
X789686Y4951729D01*
X827786Y4951729D02*
G01*
X789686Y4926329D01*
X827786Y4926329D02*
G01*
X789686Y4926329D01*
X827786Y4914392D02*
G01*
X789686Y4914392D01*
X827786Y4914392D02*
G01*
X827786Y4901692D01*
X826007Y4896104D01*
X822197Y4892547D01*
X818642Y4890770D01*
X813307Y4888992D01*
X804163Y4888992D01*
X798576Y4890770D01*
X795020Y4892547D01*
X791463Y4896104D01*
X789686Y4901692D01*
X789686Y4914392D01*
D33*
X1897379Y7161529D02*
G01*
X1894586Y7167371D01*
X1888744Y7173213D01*
X1883155Y7176008D01*
X1871471Y7176008D01*
X1865629Y7173213D01*
X1860042Y7167371D01*
X1856994Y7161529D01*
X1854200Y7152894D01*
X1854200Y7138670D01*
X1856994Y7129779D01*
X1860042Y7124192D01*
X1865629Y7118350D01*
X1871471Y7115555D01*
X1883155Y7115555D01*
X1888744Y7118350D01*
X1894586Y7124192D01*
X1897379Y7129779D01*
X1897379Y7138670D01*
X1883155Y7138670D02*
G01*
X1897379Y7138670D01*
X1916429Y7176008D02*
G01*
X1916429Y7115555D01*
X1916429Y7176008D02*
G01*
X1957070Y7115555D01*
X1957070Y7176008D02*
G01*
X1957070Y7115555D01*
X1976120Y7176008D02*
G01*
X1976120Y7115555D01*
X1976120Y7176008D02*
G01*
X1996186Y7176008D01*
X2004822Y7173213D01*
X2010663Y7167371D01*
X2013458Y7161529D01*
X2016506Y7152894D01*
X2016506Y7138670D01*
X2013458Y7129779D01*
X2010663Y7124192D01*
X2004822Y7118350D01*
X1996186Y7115555D01*
X1976120Y7115555D01*
X2120900Y7176008D02*
G01*
X2144013Y7115555D01*
X2167127Y7176008D02*
G01*
X2144013Y7115555D01*
X2229358Y7161529D02*
G01*
X2226563Y7167371D01*
X2220722Y7173213D01*
X2214879Y7176008D01*
X2203450Y7176008D01*
X2197608Y7173213D01*
X2192020Y7167371D01*
X2188972Y7161529D01*
X2186177Y7152894D01*
X2186177Y7138670D01*
X2188972Y7129779D01*
X2192020Y7124192D01*
X2197608Y7118350D01*
X2203450Y7115555D01*
X2214879Y7115555D01*
X2220722Y7118350D01*
X2226563Y7124192D01*
X2229358Y7129779D01*
X2291841Y7161529D02*
G01*
X2288793Y7167371D01*
X2283206Y7173213D01*
X2277363Y7176008D01*
X2265679Y7176008D01*
X2260091Y7173213D01*
X2254250Y7167371D01*
X2251456Y7161529D01*
X2248408Y7152894D01*
X2248408Y7138670D01*
X2251456Y7129779D01*
X2254250Y7124192D01*
X2260091Y7118350D01*
X2265679Y7115555D01*
X2277363Y7115555D01*
X2283206Y7118350D01*
X2288793Y7124192D01*
X2291841Y7129779D01*
X2884677Y5029707D02*
G01*
X2879343Y5040121D01*
X2868929Y5050536D01*
X2858770Y5055615D01*
X2837941Y5055615D01*
X2827527Y5050536D01*
X2817113Y5040121D01*
X2811779Y5029707D01*
X2806700Y5013960D01*
X2806700Y4988052D01*
X2811779Y4972557D01*
X2817113Y4962144D01*
X2827527Y4951729D01*
X2837941Y4946650D01*
X2858770Y4946650D01*
X2868929Y4951729D01*
X2879343Y4962144D01*
X2884677Y4972557D01*
X2918968Y5034787D02*
G01*
X2929381Y5040121D01*
X2944875Y5055615D01*
X2944875Y4946650D01*
D36*
X2056891Y6502400D02*
G01*
X2117343Y6502400D01*
X2117343Y6502400D02*
G01*
X2117343Y6536944D01*
X2056891Y6555994D02*
G01*
X2117343Y6555994D01*
X2056891Y6555994D02*
G01*
X2056891Y6593586D01*
X2085593Y6555994D02*
G01*
X2085593Y6579108D01*
X2117343Y6555994D02*
G01*
X2117343Y6593586D01*
X2056891Y6612636D02*
G01*
X2117343Y6612636D01*
X2056891Y6612636D02*
G01*
X2056891Y6632955D01*
X2059686Y6641592D01*
X2065527Y6647179D01*
X2071370Y6650228D01*
X2080006Y6653021D01*
X2094229Y6653021D01*
X2103120Y6650228D01*
X2108708Y6647179D01*
X2114550Y6641592D01*
X2117343Y6632955D01*
X2117343Y6612636D01*
X2068322Y6672071D02*
G01*
X2065527Y6677913D01*
X2056891Y6686550D01*
X2117343Y6686550D01*
D33*
X1943100Y5106403D02*
G01*
X1943100Y4997437D01*
X1943100Y5106403D02*
G01*
X1989836Y5106403D01*
X2005329Y5101323D01*
X2010663Y5095989D01*
X2015743Y5085575D01*
X2015743Y5075161D01*
X2010663Y5065001D01*
X2005329Y5059667D01*
X1989836Y5054587D01*
X1943100Y5054587D01*
X1979422Y5054587D02*
G01*
X2015743Y4997437D01*
X2050034Y5106403D02*
G01*
X2050034Y4997437D01*
X2050034Y5106403D02*
G01*
X2117597Y5106403D01*
X2050034Y5054587D02*
G01*
X2091690Y5054587D01*
X2050034Y4997437D02*
G01*
X2117597Y4997437D01*
X2224786Y5090909D02*
G01*
X2214372Y5101323D01*
X2198624Y5106403D01*
X2178050Y5106403D01*
X2162302Y5101323D01*
X2151888Y5090909D01*
X2151888Y5080495D01*
X2157222Y5070081D01*
X2162302Y5065001D01*
X2172715Y5059667D01*
X2203958Y5049253D01*
X2214372Y5044173D01*
X2219452Y5038839D01*
X2224786Y5028425D01*
X2224786Y5012931D01*
X2214372Y5002517D01*
X2198624Y4997437D01*
X2178050Y4997437D01*
X2162302Y5002517D01*
X2151888Y5012931D01*
X2259075Y5106403D02*
G01*
X2259075Y4997437D01*
X2259075Y5106403D02*
G01*
X2326640Y5106403D01*
X2259075Y5054587D02*
G01*
X2300477Y5054587D01*
X2259075Y4997437D02*
G01*
X2326640Y4997437D01*
X2397252Y5106403D02*
G01*
X2397252Y4997437D01*
X2360929Y5106403D02*
G01*
X2433574Y5106403D01*
X2069591Y6172200D02*
G01*
X2130043Y6172200D01*
X2069591Y6172200D02*
G01*
X2069591Y6198107D01*
X2072386Y6206744D01*
X2075179Y6209792D01*
X2081022Y6212586D01*
X2086863Y6212586D01*
X2092706Y6209792D01*
X2095500Y6206744D01*
X2098293Y6198107D01*
X2098293Y6172200D01*
X2098293Y6192520D02*
G01*
X2130043Y6212586D01*
X2069591Y6260592D02*
G01*
X2109977Y6231636D01*
X2109977Y6275070D01*
X2069591Y6260592D02*
G01*
X2130043Y6260592D01*
X1461770Y5957315D02*
G01*
X1461770Y5874257D01*
X1456436Y5858510D01*
X1451355Y5853429D01*
X1440942Y5848350D01*
X1430528Y5848350D01*
X1420113Y5853429D01*
X1414779Y5858510D01*
X1409700Y5874257D01*
X1409700Y5884671D01*
X1501139Y5931407D02*
G01*
X1501139Y5936487D01*
X1506220Y5946902D01*
X1511554Y5952236D01*
X1521968Y5957315D01*
X1542795Y5957315D01*
X1553210Y5952236D01*
X1558289Y5946902D01*
X1563370Y5936487D01*
X1563370Y5926073D01*
X1558289Y5915660D01*
X1547876Y5900165D01*
X1496060Y5848350D01*
X1568704Y5848350D01*
X2070100Y5740907D02*
G01*
X2070100Y5680455D01*
X2070100Y5740907D02*
G01*
X2096008Y5740907D01*
X2104643Y5738113D01*
X2107691Y5735320D01*
X2110486Y5729478D01*
X2110486Y5723636D01*
X2107691Y5717794D01*
X2104643Y5715000D01*
X2096008Y5712205D01*
X2070100Y5712205D01*
X2090420Y5712205D02*
G01*
X2110486Y5680455D01*
X2129536Y5729478D02*
G01*
X2135377Y5732271D01*
X2144013Y5740907D01*
X2144013Y5680455D01*
X2044700Y5258307D02*
G01*
X2044700Y5197855D01*
X2044700Y5258307D02*
G01*
X2070608Y5258307D01*
X2079243Y5255513D01*
X2082291Y5252720D01*
X2085086Y5246878D01*
X2085086Y5241036D01*
X2082291Y5235194D01*
X2079243Y5232400D01*
X2070608Y5229605D01*
X2044700Y5229605D01*
X2065020Y5229605D02*
G01*
X2085086Y5197855D01*
X2106929Y5243829D02*
G01*
X2106929Y5246878D01*
X2109977Y5252720D01*
X2112772Y5255513D01*
X2118613Y5258307D01*
X2130043Y5258307D01*
X2135886Y5255513D01*
X2138679Y5252720D01*
X2141727Y5246878D01*
X2141727Y5241036D01*
X2138679Y5235194D01*
X2133091Y5226557D01*
X2104136Y5197855D01*
X2144522Y5197855D01*
X2222507Y6097015D02*
G01*
X2222507Y5988050D01*
X2222507Y6097015D02*
G01*
X2269243Y6097015D01*
X2284737Y6091936D01*
X2290071Y6086602D01*
X2295151Y6076187D01*
X2295151Y6065773D01*
X2290071Y6055360D01*
X2284737Y6050279D01*
X2269243Y6045200D01*
X2222507Y6045200D01*
X2258829Y6045200D02*
G01*
X2295151Y5988050D01*
X2329441Y6097015D02*
G01*
X2402339Y5988050D01*
X2402339Y6097015D02*
G01*
X2329441Y5988050D01*
X2271529Y5614415D02*
G01*
X2271529Y5505450D01*
X2235207Y5614415D02*
G01*
X2307851Y5614415D01*
X2342141Y5614415D02*
G01*
X2415039Y5505450D01*
X2415039Y5614415D02*
G01*
X2342141Y5505450D01*
G36*
X2222550Y6617919D02*
G01*
X2186584Y6592925D01*
X2258568Y6591909D01*
G37*
G36*
X2300376Y5916117D02*
G01*
X2299411Y5844133D01*
X2325370Y5880100D01*
G37*
G36*
X2300376Y5433517D02*
G01*
X2299411Y5361533D01*
X2325370Y5397500D01*
G37*
D10*
X2971101Y4878677D02*
G01*
X2971101Y4798674D01*
X2860126Y4909662D02*
G01*
X2940123Y4909662D01*
X2860126Y4767696D02*
G01*
X2940123Y4767696D01*
X2802536Y4910244D02*
G01*
X2722537Y4910244D01*
X2691554Y4879261D02*
G01*
X2691554Y4799263D01*
X2802536Y4768283D02*
G01*
X2722537Y4768283D01*
D31*
X2149568Y6640923D02*
G01*
X2149568Y6755922D01*
X2294567Y6755922D01*
X2294567Y6635922D01*
X2295568Y6573923D02*
G01*
X2295568Y6449923D01*
X2150569Y6449923D01*
X2150569Y6573923D01*
X2149568Y6755922D02*
G01*
X2149568Y6758924D01*
X2169568Y6778924D01*
X2271567Y6778924D01*
X2274567Y6775922D01*
X2294567Y6755922D01*
D10*
X1963026Y4959012D02*
G01*
X2380368Y4959012D01*
X2431699Y4805898D02*
G01*
X2431699Y4592126D01*
X2380368Y4439013D02*
G01*
X1963031Y4439013D01*
X1911700Y4592126D02*
G01*
X1911700Y4805898D01*
X1976699Y4764013D02*
G01*
X2106698Y4894013D01*
X2236701Y4894013D01*
X2366700Y4764013D01*
X2366700Y4634011D01*
X2236701Y4504011D01*
X2106698Y4504011D01*
X1976699Y4634011D01*
X1976699Y4764013D01*
D33*
X2301260Y6316421D02*
G01*
X2301260Y6412308D01*
X2169139Y6412308D01*
X2169139Y6316421D01*
X2301260Y6231178D02*
G01*
X2301260Y6135291D01*
X2169139Y6135291D01*
X2169139Y6231178D01*
D34*
X1244600Y5816600D02*
G01*
X1054100Y5816600D01*
X1054100Y5562600D01*
X1816100Y5562600D01*
X1816100Y5816600D01*
D35*
X1816100Y5816600D02*
G01*
X1244600Y5816600D01*
D33*
X2268778Y5781060D02*
G01*
X2172891Y5781060D01*
X2172891Y5648939D01*
X2268778Y5648939D01*
X2354021Y5781060D02*
G01*
X2449908Y5781060D01*
X2449908Y5648939D01*
X2354021Y5648939D01*
X2268778Y5285760D02*
G01*
X2172891Y5285760D01*
X2172891Y5153639D01*
X2268778Y5153639D01*
X2354021Y5285760D02*
G01*
X2449908Y5285760D01*
X2449908Y5153639D01*
X2354021Y5153639D01*
D31*
X2348400Y5953099D02*
G01*
X2463398Y5953099D01*
X2463398Y5808101D01*
X2343398Y5808101D01*
X2281400Y5807100D02*
G01*
X2157399Y5807100D01*
X2157399Y5952098D01*
X2281400Y5952098D01*
X2463398Y5953099D02*
G01*
X2466400Y5953099D01*
X2486400Y5933099D01*
X2486400Y5831100D01*
X2483398Y5828101D01*
X2463398Y5808101D01*
X2348400Y5470499D02*
G01*
X2463398Y5470499D01*
X2463398Y5325501D01*
X2343398Y5325501D01*
X2281400Y5324500D02*
G01*
X2157399Y5324500D01*
X2157399Y5469498D01*
X2281400Y5469498D01*
X2463398Y5470499D02*
G01*
X2466400Y5470499D01*
X2486400Y5450499D01*
X2486400Y5348500D01*
X2483398Y5345501D01*
X2463398Y5325501D01*
D34*
X2667000Y5308600D02*
G01*
X2667000Y5118100D01*
X2921000Y5118100D01*
X2921000Y6642100D01*
X2667000Y6642100D01*
D35*
X2667000Y6642100D02*
G01*
X2667000Y5308600D01*
D33*
X1119441Y6093970D02*
G01*
X1052070Y6093970D01*
X1052070Y6161341D01*
X1119441Y6809214D02*
G01*
X1052070Y6809214D01*
X1052070Y6741845D01*
X1699945Y6093970D02*
G01*
X1767314Y6093970D01*
X1767314Y6161341D01*
X1699945Y6809214D02*
G01*
X1767314Y6809214D01*
X1767314Y6741845D01*
D10*
G75*
G01*
X2691549Y4879261D02*
G02*
X2722532Y4910244I30983J0D01*
G75*
G01*
X2722532Y4768278D02*
G02*
X2691549Y4799264I0J30983D01*
G75*
G01*
X2940119Y4909663D02*
G02*
X2971101Y4878677I0J-30983D01*
G75*
G01*
X2971101Y4798680D02*
G02*
X2940119Y4767697I-30982J0D01*
G75*
G01
X2301697Y4699000D02*
G03X2301697Y4699000I-129997J0D01*
D31*
G75*
G01
X1821155Y6191606D02*
G03X1821155Y6191606I-7493J0D01*
M02*
