G04 Layer: BottomLayer*
G04 EasyEDA v6.4.25, 2021-10-20T20:18:06+03:00*
G04 dcba5cd40900447394ce88492ccb6976,3ac546bf038a4e40b039f7879bd882b5,10*
G04 Gerber Generator version 0.2*
G04 Scale: 100 percent, Rotated: No, Reflected: No *
G04 Dimensions in millimeters *
G04 leading zeros omitted , absolute positions ,4 integer and 5 decimal *
%FSLAX45Y45*%
%MOMM*%

%ADD11C,0.1000*%
%ADD14C,0.4000*%
%ADD16C,0.6100*%
%ADD28C,1.7000*%
%ADD29C,1.5748*%
%ADD30R,1.5748X1.5748*%
%ADD31C,0.1500*%
%ADD32C,1.0000*%

%LPD*%
D11*
X2794000Y5753100D02*
G01*
X2591460Y5955639D01*
X1519377Y5955639D01*
X1435100Y5689600D02*
G01*
X1435100Y5943600D01*
X1498600Y6007100D01*
X2235200Y6007100D01*
X2794000Y6007100D02*
G01*
X2235200Y6007100D01*
X1943100Y6569735D02*
G01*
X1671345Y6297980D01*
X1502282Y6297980D01*
X1409700Y6205397D01*
X1660017Y6546850D02*
G01*
X1023315Y6546850D01*
X807212Y6762953D01*
X1670532Y6247053D02*
G01*
X2779953Y6247053D01*
X2794000Y6261100D01*
D14*
X2794000Y6515100D02*
G01*
X1997735Y6515100D01*
X1943100Y6569735D01*
X1943100Y6934200D02*
G01*
X1968500Y6680200D01*
X1943100Y6569710D01*
D11*
X1283893Y6029731D02*
G01*
X1056436Y5802274D01*
X1056436Y5577230D01*
X1134567Y5499100D01*
X2794000Y5499100D01*
D31*
X1280261Y5689600D02*
G01*
X1280261Y5906896D01*
X1409700Y6036335D01*
X1409700Y6205397D01*
D32*
X1181100Y5689600D02*
G01*
X1280261Y5689600D01*
G36*
X2282098Y7012939D02*
G01*
X2112098Y7012939D01*
X2112098Y6855460D01*
X2282098Y6855460D01*
G37*
D28*
G01*
X1943100Y6934200D03*
D29*
G01*
X1689100Y5689600D03*
G01*
X1435100Y5689600D03*
G36*
X1102360Y5768339D02*
G01*
X1259839Y5768339D01*
X1259839Y5610860D01*
X1102360Y5610860D01*
G37*
G01*
X2794000Y6515100D03*
G01*
X2794000Y6261100D03*
G01*
X2794000Y6007100D03*
G01*
X2794000Y5753100D03*
G01*
X2794000Y5499100D03*
D30*
G01*
X2794000Y5245100D03*
D16*
G01*
X1283893Y6029731D03*
G01*
X1519377Y5955639D03*
G01*
X2235200Y6007100D03*
G01*
X1409700Y6205397D03*
G01*
X807212Y6762953D03*
G01*
X1660017Y6546850D03*
G01*
X1670532Y6247053D03*
M02*
