G04 Layer: BottomSilkLayer*
G04 EasyEDA v6.4.25, 2021-10-20T20:18:06+03:00*
G04 dcba5cd40900447394ce88492ccb6976,3ac546bf038a4e40b039f7879bd882b5,10*
G04 Gerber Generator version 0.2*
G04 Scale: 100 percent, Rotated: No, Reflected: No *
G04 Dimensions in millimeters *
G04 leading zeros omitted , absolute positions ,4 integer and 5 decimal *
%FSLAX45Y45*%
%MOMM*%

%ADD33C,0.1524*%
%ADD34C,0.2032*%
%ADD35C,0.2030*%

%LPD*%
G36*
X847547Y5285689D02*
G01*
X846632Y5285536D01*
X845921Y5285028D01*
X845413Y5284266D01*
X845210Y5283403D01*
X848258Y5279796D01*
X870661Y5256479D01*
X909980Y5216499D01*
X996137Y5130241D01*
X1045108Y5081778D01*
X1060348Y5067198D01*
X1070406Y5058003D01*
X1076147Y5053330D01*
X1077671Y5052517D01*
X1078433Y5052517D01*
X1078433Y5053228D01*
X1077569Y5054752D01*
X1072946Y5060543D01*
X1063701Y5070602D01*
X1049121Y5085791D01*
X1000709Y5134813D01*
X908710Y5226558D01*
X870508Y5264099D01*
X849680Y5283962D01*
G37*
G36*
X1237132Y5257444D02*
G01*
X1234135Y5256530D01*
X1230985Y5254701D01*
X1228598Y5252720D01*
X1227429Y5250332D01*
X1227226Y5246522D01*
X1227937Y5237378D01*
X1229817Y5222494D01*
X1246022Y5115255D01*
X1249984Y5091734D01*
X1253185Y5070551D01*
X1256436Y5050942D01*
X1257808Y5044033D01*
X1258773Y5040376D01*
X1261414Y5036870D01*
X1265377Y5035042D01*
X1270050Y5035042D01*
X1274775Y5037023D01*
X1277467Y5039055D01*
X1278788Y5041392D01*
X1278991Y5045202D01*
X1277721Y5057343D01*
X1252880Y5219344D01*
X1249578Y5239054D01*
X1248206Y5245658D01*
X1246987Y5250434D01*
X1245768Y5253685D01*
X1244549Y5255615D01*
X1243279Y5256580D01*
X1240129Y5257444D01*
G37*
G36*
X1316329Y5225592D02*
G01*
X1311706Y5223764D01*
X1308404Y5219903D01*
X1307134Y5214569D01*
X1307388Y5212689D01*
X1308252Y5210505D01*
X1309878Y5207812D01*
X1312418Y5204358D01*
X1321206Y5194350D01*
X1347216Y5166664D01*
X1356410Y5156504D01*
X1364335Y5147106D01*
X1364894Y5145989D01*
X1364335Y5144922D01*
X1359966Y5139537D01*
X1341831Y5119573D01*
X1327759Y5104688D01*
X1316075Y5091988D01*
X1312367Y5087620D01*
X1309827Y5084165D01*
X1308201Y5081473D01*
X1307388Y5079288D01*
X1307134Y5077358D01*
X1308354Y5072583D01*
X1311351Y5068824D01*
X1315516Y5066690D01*
X1320038Y5066792D01*
X1324254Y5070144D01*
X1332839Y5078374D01*
X1344625Y5090261D01*
X1358341Y5104587D01*
X1374952Y5122418D01*
X1385570Y5134457D01*
X1388922Y5138674D01*
X1391208Y5141925D01*
X1392428Y5144312D01*
X1392834Y5145989D01*
X1392428Y5147716D01*
X1391208Y5150104D01*
X1385570Y5157571D01*
X1374952Y5169560D01*
X1344828Y5201666D01*
X1333347Y5213502D01*
X1321562Y5224881D01*
G37*
G36*
X1188212Y5225288D02*
G01*
X1184554Y5224475D01*
X1180947Y5222494D01*
X1177544Y5219446D01*
X1145895Y5185918D01*
X1125270Y5163718D01*
X1118158Y5155742D01*
X1114653Y5151374D01*
X1112774Y5148224D01*
X1112164Y5145989D01*
X1112774Y5143804D01*
X1114653Y5140655D01*
X1118158Y5136235D01*
X1134821Y5117846D01*
X1177848Y5072075D01*
X1184503Y5067604D01*
X1191412Y5067503D01*
X1196898Y5071262D01*
X1199134Y5078323D01*
X1198067Y5081270D01*
X1194968Y5085892D01*
X1189837Y5092090D01*
X1154176Y5129987D01*
X1144727Y5140350D01*
X1140866Y5145125D01*
X1140460Y5145989D01*
X1140866Y5146903D01*
X1144727Y5151678D01*
X1154176Y5162042D01*
X1182674Y5192166D01*
X1192631Y5203139D01*
X1197864Y5210708D01*
X1199032Y5216194D01*
X1196797Y5220868D01*
X1194308Y5223256D01*
X1191666Y5224780D01*
G37*
G36*
X1114806Y5039766D02*
G01*
X1110437Y5038852D01*
X1106525Y5036921D01*
X1103325Y5034076D01*
X1101191Y5030419D01*
X1100407Y5026202D01*
X1111961Y5026202D01*
X1112215Y5027574D01*
X1114399Y5030470D01*
X1116787Y5030063D01*
X1118362Y5027269D01*
X1118006Y5022850D01*
X1117295Y5020818D01*
X1116533Y5020056D01*
X1115466Y5020360D01*
X1113942Y5021783D01*
X1112926Y5023154D01*
X1112215Y5024678D01*
X1111961Y5026202D01*
X1100407Y5026202D01*
X1100683Y5023154D01*
X1101547Y5020462D01*
X1102969Y5017973D01*
X1107440Y5013198D01*
X1108456Y5011420D01*
X1108049Y5009642D01*
X1106373Y5007203D01*
X1103934Y5004612D01*
X1102055Y5003952D01*
X1100836Y5005171D01*
X1100124Y5009997D01*
X1099210Y5011115D01*
X1097483Y5011724D01*
X1094790Y5011877D01*
X1090980Y5011115D01*
X1089253Y5008727D01*
X1089609Y5004663D01*
X1093419Y4995773D01*
X1093673Y4993487D01*
X1093311Y4992674D01*
X1112316Y4992674D01*
X1112723Y4995976D01*
X1115415Y4999888D01*
X1118666Y5003038D01*
X1121003Y5004206D01*
X1122832Y5003393D01*
X1124610Y5000701D01*
X1125626Y4996738D01*
X1124559Y4993182D01*
X1121918Y4990541D01*
X1117955Y4989525D01*
X1114094Y4990388D01*
X1112316Y4992674D01*
X1093311Y4992674D01*
X1092657Y4991201D01*
X1088339Y4985766D01*
X1085850Y4982210D01*
X1085494Y4981346D01*
X1087780Y4980432D01*
X1092911Y4980279D01*
X1098296Y4980787D01*
X1102207Y4982413D01*
X1104087Y4982311D01*
X1106627Y4981803D01*
X1114806Y4979263D01*
X1119682Y4978857D01*
X1124254Y4979416D01*
X1128318Y4980838D01*
X1131824Y4982972D01*
X1134668Y4985715D01*
X1136751Y4988966D01*
X1138021Y4992624D01*
X1138326Y4996484D01*
X1137564Y5000548D01*
X1135684Y5004663D01*
X1132535Y5008626D01*
X1129487Y5011978D01*
X1128064Y5014315D01*
X1128115Y5016195D01*
X1131519Y5022494D01*
X1131874Y5026863D01*
X1130503Y5031181D01*
X1127506Y5035245D01*
X1123645Y5038090D01*
X1119327Y5039512D01*
G37*
G36*
X879500Y5020157D02*
G01*
X875893Y5019090D01*
X875487Y5014874D01*
X879094Y5008524D01*
X881075Y5005628D01*
X884572Y4998720D01*
X895654Y4998720D01*
X895705Y4999583D01*
X896569Y4999634D01*
X900937Y4998618D01*
X903884Y4997653D01*
X907338Y4995875D01*
X911809Y4992776D01*
X916889Y4988814D01*
X922019Y4984343D01*
X926846Y4979771D01*
X930859Y4975606D01*
X933602Y4972151D01*
X934618Y4969916D01*
X934262Y4968748D01*
X931773Y4965293D01*
X925220Y4958994D01*
X913180Y4970983D01*
X907948Y4976469D01*
X903528Y4981854D01*
X900125Y4986782D01*
X898042Y4990947D01*
X896061Y4996789D01*
X895654Y4998720D01*
X884572Y4998720D01*
X889609Y4986172D01*
X892911Y4980432D01*
X897788Y4974234D01*
X911555Y4959146D01*
X915771Y4953914D01*
X917803Y4950155D01*
X918211Y4946650D01*
X926337Y4946650D01*
X940562Y4960924D01*
X944219Y4964176D01*
X947013Y4966360D01*
X948588Y4967173D01*
X950823Y4966004D01*
X954633Y4962906D01*
X964336Y4953304D01*
X972972Y4943500D01*
X975410Y4940046D01*
X975817Y4938420D01*
X975004Y4937658D01*
X974344Y4936490D01*
X973886Y4935067D01*
X973734Y4933543D01*
X974648Y4931156D01*
X976833Y4929987D01*
X979627Y4930190D01*
X983437Y4932375D01*
X984808Y4932121D01*
X986485Y4931105D01*
X988466Y4929225D01*
X990447Y4926838D01*
X991463Y4924856D01*
X991514Y4923028D01*
X990701Y4920996D01*
X989888Y4917541D01*
X991158Y4915001D01*
X993952Y4913934D01*
X997559Y4914849D01*
X999540Y4915611D01*
X1001318Y4915458D01*
X1003147Y4914392D01*
X1005433Y4912207D01*
X1007516Y4909820D01*
X1008430Y4907991D01*
X1008329Y4906416D01*
X1006094Y4903165D01*
X1005840Y4901793D01*
X1006348Y4900472D01*
X1007821Y4898796D01*
X1009446Y4897374D01*
X1010818Y4896815D01*
X1012139Y4897120D01*
X1015492Y4899406D01*
X1017066Y4899507D01*
X1018895Y4898491D01*
X1025906Y4891684D01*
X1003655Y4869586D01*
X996950Y4876139D01*
X995832Y4877866D01*
X995527Y4879289D01*
X997712Y4883099D01*
X997915Y4885893D01*
X996696Y4888077D01*
X994359Y4888941D01*
X992835Y4888788D01*
X991412Y4888382D01*
X990244Y4887722D01*
X988669Y4886350D01*
X987450Y4886502D01*
X985875Y4887417D01*
X983945Y4888992D01*
X981862Y4891278D01*
X980694Y4893513D01*
X980338Y4896104D01*
X981049Y4902657D01*
X980846Y4904587D01*
X979881Y4905502D01*
X978103Y4905705D01*
X976528Y4905603D01*
X973632Y4904587D01*
X972616Y4903825D01*
X971499Y4903317D01*
X970076Y4903571D01*
X968349Y4904689D01*
X966266Y4906670D01*
X964285Y4909007D01*
X963269Y4910836D01*
X963218Y4912258D01*
X964082Y4913579D01*
X965962Y4917389D01*
X964742Y4920538D01*
X961593Y4921910D01*
X957580Y4920335D01*
X955598Y4919776D01*
X952652Y4921300D01*
X947877Y4925314D01*
X926337Y4946650D01*
X918211Y4946650D01*
X918311Y4945583D01*
X919378Y4943348D01*
X921512Y4940249D01*
X929944Y4930546D01*
X945540Y4914392D01*
X969111Y4890516D01*
X985519Y4873548D01*
X990193Y4868316D01*
X993038Y4864506D01*
X994511Y4861763D01*
X994968Y4859528D01*
X994740Y4855413D01*
X1002690Y4855413D01*
X1027277Y4880000D01*
X1033322Y4885639D01*
X1037742Y4889449D01*
X1039876Y4890820D01*
X1041095Y4890363D01*
X1045311Y4887163D01*
X1053795Y4878832D01*
X1047038Y4871923D01*
X1044244Y4868773D01*
X1042365Y4866030D01*
X1041400Y4863795D01*
X1041400Y4862068D01*
X1043127Y4859934D01*
X1045718Y4859274D01*
X1048613Y4860086D01*
X1051204Y4862423D01*
X1052626Y4864100D01*
X1053896Y4864557D01*
X1055471Y4863744D01*
X1062126Y4857292D01*
X1043482Y4838649D01*
X1039469Y4835398D01*
X1036980Y4834839D01*
X1034846Y4836210D01*
X1032510Y4838903D01*
X1031595Y4841392D01*
X1032205Y4843475D01*
X1034287Y4844948D01*
X1036319Y4846777D01*
X1036980Y4849571D01*
X1036269Y4852416D01*
X1034237Y4854244D01*
X1032510Y4854244D01*
X1030122Y4853178D01*
X1027176Y4851298D01*
X1023874Y4848555D01*
X1016355Y4841748D01*
X1002690Y4855413D01*
X994740Y4855413D01*
X994664Y4853533D01*
X995680Y4850333D01*
X998372Y4846726D01*
X1003300Y4841646D01*
X1008227Y4837074D01*
X1012037Y4834331D01*
X1015339Y4833010D01*
X1020775Y4832604D01*
X1022807Y4832096D01*
X1025093Y4830978D01*
X1027836Y4828997D01*
X1030858Y4826457D01*
X1044549Y4826457D01*
X1060704Y4842713D01*
X1067409Y4848910D01*
X1068730Y4849825D01*
X1070356Y4848606D01*
X1079042Y4840427D01*
X1100429Y4819040D01*
X1076198Y4795012D01*
X1044549Y4826457D01*
X1030858Y4826457D01*
X1035761Y4821986D01*
X1059942Y4798314D01*
X1065933Y4792929D01*
X1087374Y4792929D01*
X1097026Y4802682D01*
X1101242Y4806340D01*
X1102156Y4806848D01*
X1103782Y4805730D01*
X1106271Y4803292D01*
X1107795Y4801260D01*
X1107846Y4799431D01*
X1106119Y4796942D01*
X1102309Y4793030D01*
X1098194Y4789220D01*
X1095654Y4787544D01*
X1093673Y4787747D01*
X1087374Y4792929D01*
X1065933Y4792929D01*
X1067968Y4791100D01*
X1073353Y4787239D01*
X1076807Y4786071D01*
X1078992Y4785715D01*
X1081379Y4784750D01*
X1083716Y4783328D01*
X1085697Y4781600D01*
X1089812Y4778654D01*
X1094486Y4777333D01*
X1098905Y4777790D01*
X1104493Y4781600D01*
X1106271Y4780635D01*
X1107389Y4777384D01*
X1107846Y4771999D01*
X1106982Y4765446D01*
X1104442Y4759655D01*
X1100480Y4754981D01*
X1095298Y4751781D01*
X1092047Y4750409D01*
X1089101Y4749546D01*
X1086053Y4749495D01*
X1082548Y4750511D01*
X1078230Y4752898D01*
X1072743Y4756962D01*
X1065682Y4763008D01*
X1056690Y4771339D01*
X1031443Y4795977D01*
X950010Y4877003D01*
X929386Y4896967D01*
X915060Y4910277D01*
X910132Y4914595D01*
X906526Y4917440D01*
X904240Y4918862D01*
X899464Y4920640D01*
X894587Y4921758D01*
X889711Y4922215D01*
X884885Y4921961D01*
X880160Y4921097D01*
X875588Y4919675D01*
X871219Y4917592D01*
X867105Y4914950D01*
X863295Y4911801D01*
X859891Y4908092D01*
X856894Y4903876D01*
X854354Y4899202D01*
X852322Y4893716D01*
X851255Y4888128D01*
X851103Y4882489D01*
X851916Y4876850D01*
X853592Y4871313D01*
X856183Y4865878D01*
X859637Y4860696D01*
X867410Y4852162D01*
X868883Y4849723D01*
X868629Y4847437D01*
X864717Y4839817D01*
X864070Y4836109D01*
X873912Y4836109D01*
X874166Y4837785D01*
X876046Y4840325D01*
X879652Y4844135D01*
X885596Y4849418D01*
X887882Y4851044D01*
X889355Y4851654D01*
X892098Y4850892D01*
X892606Y4848606D01*
X890879Y4844999D01*
X886968Y4840376D01*
X882396Y4835804D01*
X879602Y4833670D01*
X877519Y4833569D01*
X875030Y4834890D01*
X873912Y4836109D01*
X864070Y4836109D01*
X864971Y4832705D01*
X869391Y4826203D01*
X870254Y4823968D01*
X870203Y4821682D01*
X869340Y4818837D01*
X868019Y4812284D01*
X868134Y4811572D01*
X878179Y4811572D01*
X878484Y4815738D01*
X880414Y4819751D01*
X884885Y4825085D01*
X893013Y4833264D01*
X899414Y4839309D01*
X904646Y4843780D01*
X909066Y4846675D01*
X912926Y4847996D01*
X916584Y4847894D01*
X920343Y4846370D01*
X924407Y4843475D01*
X938479Y4830572D01*
X924814Y4816500D01*
X922528Y4813452D01*
X922426Y4811369D01*
X924001Y4809388D01*
X926033Y4807864D01*
X928369Y4808270D01*
X932078Y4811217D01*
X944626Y4823307D01*
X948385Y4826254D01*
X950671Y4826609D01*
X952753Y4825085D01*
X953617Y4823968D01*
X953922Y4822698D01*
X953363Y4820970D01*
X951737Y4818583D01*
X944371Y4810404D01*
X935431Y4801311D01*
X951128Y4801311D01*
X951737Y4802886D01*
X953668Y4804460D01*
X955090Y4805121D01*
X959764Y4801666D01*
X967333Y4793792D01*
X974140Y4785614D01*
X976630Y4781092D01*
X974547Y4779314D01*
X971499Y4779975D01*
X966876Y4783378D01*
X960170Y4789830D01*
X955090Y4795215D01*
X952144Y4798872D01*
X951128Y4801311D01*
X935431Y4801311D01*
X915517Y4781499D01*
X907287Y4774082D01*
X904997Y4772507D01*
X922223Y4772507D01*
X923442Y4774488D01*
X924153Y4775098D01*
X924864Y4775352D01*
X929741Y4771847D01*
X937463Y4764074D01*
X944371Y4755896D01*
X946861Y4751324D01*
X945134Y4749647D01*
X942644Y4750104D01*
X938479Y4753254D01*
X931773Y4759452D01*
X927252Y4764074D01*
X924153Y4767783D01*
X922477Y4770628D01*
X922223Y4772507D01*
X904849Y4772406D01*
X903122Y4771847D01*
X901852Y4772101D01*
X900633Y4772964D01*
X898956Y4774895D01*
X899160Y4777079D01*
X901852Y4780534D01*
X907542Y4786426D01*
X913892Y4793488D01*
X917244Y4798771D01*
X917498Y4802124D01*
X914653Y4803292D01*
X912774Y4802632D01*
X910082Y4800955D01*
X906830Y4798466D01*
X895451Y4787544D01*
X886917Y4796078D01*
X882650Y4800650D01*
X880008Y4804308D01*
X878636Y4807762D01*
X878179Y4811572D01*
X868134Y4811572D01*
X869086Y4805680D01*
X872693Y4798771D01*
X882853Y4786680D01*
X885748Y4782769D01*
X887476Y4779416D01*
X888542Y4774285D01*
X889914Y4771542D01*
X892251Y4768545D01*
X895502Y4765294D01*
X900480Y4760976D01*
X903681Y4759096D01*
X906271Y4759350D01*
X909319Y4761433D01*
X911656Y4762601D01*
X914298Y4761839D01*
X918514Y4758588D01*
X931824Y4746142D01*
X936548Y4742434D01*
X940308Y4740503D01*
X943610Y4739944D01*
X948334Y4741164D01*
X952652Y4744313D01*
X955751Y4748631D01*
X956970Y4753406D01*
X956005Y4755845D01*
X953312Y4759807D01*
X949350Y4764684D01*
X944524Y4769967D01*
X932129Y4782820D01*
X942848Y4794046D01*
X961390Y4775860D01*
X966063Y4772152D01*
X969771Y4770272D01*
X973175Y4769764D01*
X978052Y4770932D01*
X982421Y4774082D01*
X985570Y4778400D01*
X986790Y4783226D01*
X985824Y4785664D01*
X983183Y4789525D01*
X979271Y4794351D01*
X968146Y4806340D01*
X964742Y4810709D01*
X963625Y4813655D01*
X964285Y4816043D01*
X965911Y4820259D01*
X965860Y4824018D01*
X963828Y4827930D01*
X959764Y4832553D01*
X956462Y4835550D01*
X953769Y4837379D01*
X951382Y4838192D01*
X946658Y4837988D01*
X943610Y4839360D01*
X939596Y4842408D01*
X923188Y4857800D01*
X905967Y4856378D01*
X901903Y4856530D01*
X899058Y4857242D01*
X893318Y4860696D01*
X888949Y4861356D01*
X884580Y4860645D01*
X880871Y4858512D01*
X878890Y4857038D01*
X877112Y4856988D01*
X874725Y4858715D01*
X871067Y4862423D01*
X867206Y4866894D01*
X864209Y4871161D01*
X862076Y4875276D01*
X860755Y4879340D01*
X860298Y4883353D01*
X860602Y4887468D01*
X861720Y4891633D01*
X863650Y4896002D01*
X867156Y4901946D01*
X871016Y4906111D01*
X875792Y4909058D01*
X883970Y4911750D01*
X887476Y4912512D01*
X890778Y4912715D01*
X894334Y4912055D01*
X898398Y4910226D01*
X903427Y4906873D01*
X909777Y4901793D01*
X917803Y4894580D01*
X940460Y4872736D01*
X1016914Y4796536D01*
X1039215Y4774692D01*
X1057046Y4757623D01*
X1070660Y4745177D01*
X1072845Y4743551D01*
X1077264Y4741672D01*
X1081786Y4740554D01*
X1086358Y4740148D01*
X1090980Y4740503D01*
X1095552Y4741570D01*
X1100023Y4743348D01*
X1104392Y4745837D01*
X1108506Y4749038D01*
X1111554Y4752289D01*
X1113993Y4756251D01*
X1115771Y4760722D01*
X1116990Y4765446D01*
X1117447Y4770374D01*
X1117244Y4775250D01*
X1116330Y4779924D01*
X1113129Y4787341D01*
X1112723Y4789424D01*
X1113434Y4791151D01*
X1115364Y4793081D01*
X1118158Y4796790D01*
X1118819Y4800854D01*
X1117295Y4805121D01*
X1111351Y4812080D01*
X1109878Y4814366D01*
X1109167Y4816500D01*
X1109218Y4818380D01*
X1108506Y4821326D01*
X1104798Y4826558D01*
X1097483Y4834737D01*
X1078534Y4854194D01*
X1068578Y4864760D01*
X1065631Y4868265D01*
X1063752Y4871008D01*
X1062736Y4873142D01*
X1062431Y4875072D01*
X1062685Y4880203D01*
X1061516Y4883251D01*
X1058519Y4887010D01*
X1053185Y4892294D01*
X1046632Y4898186D01*
X1042314Y4901133D01*
X1038961Y4901641D01*
X1035405Y4900269D01*
X1034135Y4900117D01*
X1032205Y4900930D01*
X1029360Y4902860D01*
X1020013Y4911140D01*
X1004163Y4926584D01*
X981811Y4948834D01*
X965606Y4964633D01*
X960119Y4969611D01*
X955954Y4973015D01*
X952855Y4975148D01*
X950518Y4976215D01*
X945184Y4977079D01*
X941476Y4979111D01*
X936599Y4983124D01*
X922934Y4996281D01*
X916990Y5001006D01*
X911047Y5004511D01*
X898448Y5009794D01*
X893114Y5012334D01*
X888593Y5014823D01*
X885494Y5016906D01*
G37*
G36*
X1162100Y4970932D02*
G01*
X1161288Y4970678D01*
X1160627Y4969967D01*
X1160170Y4968951D01*
X1160018Y4967681D01*
X1160881Y4966411D01*
X1167638Y4959045D01*
X1197203Y4928514D01*
X1241501Y4883810D01*
X1311148Y4814265D01*
X1357172Y4768900D01*
X1390040Y4737100D01*
X1398981Y4728870D01*
X1401521Y4726889D01*
X1402486Y4727092D01*
X1403299Y4727600D01*
X1403807Y4728413D01*
X1404010Y4729327D01*
X1400860Y4733086D01*
X1377594Y4757216D01*
X1336751Y4798618D01*
X1250086Y4885182D01*
X1203706Y4931003D01*
X1172413Y4961483D01*
X1164285Y4969103D01*
G37*
G36*
X913130Y4832858D02*
G01*
X911047Y4832248D01*
X907694Y4829657D01*
X902360Y4824526D01*
X896924Y4818634D01*
X894181Y4814366D01*
X894130Y4811369D01*
X896569Y4809490D01*
X898398Y4809540D01*
X900887Y4810709D01*
X903986Y4813046D01*
X907745Y4816449D01*
X912520Y4821631D01*
X915263Y4825898D01*
X915974Y4829251D01*
X914755Y4831842D01*
G37*
D33*
X2030729Y7189215D02*
G01*
X2030729Y7106158D01*
X2036063Y7090410D01*
X2041143Y7085329D01*
X2051558Y7080250D01*
X2061972Y7080250D01*
X2072386Y7085329D01*
X2077720Y7090410D01*
X2082800Y7106158D01*
X2082800Y7116571D01*
X1996440Y7168387D02*
G01*
X1986279Y7173721D01*
X1970531Y7189215D01*
X1970531Y7080250D01*
D35*
X1816100Y7061200D02*
G01*
X2133600Y7061200D01*
D34*
X1816100Y7061200D02*
G01*
X1816100Y6807200D01*
X2324100Y6807200D01*
X2324100Y7061200D01*
X2133600Y7061200D01*
M02*
