G04 Layer: TopPasteMaskLayer*
G04 EasyEDA v6.4.25, 2021-10-20T20:18:06+03:00*
G04 dcba5cd40900447394ce88492ccb6976,3ac546bf038a4e40b039f7879bd882b5,10*
G04 Gerber Generator version 0.2*
G04 Scale: 100 percent, Rotated: No, Reflected: No *
G04 Dimensions in millimeters *
G04 leading zeros omitted , absolute positions ,4 integer and 5 decimal *
%FSLAX45Y45*%
%MOMM*%

%ADD17R,0.8999X1.0000*%
%ADD18R,0.8999X2.0000*%
%ADD24R,0.6650X0.2000*%
%ADD25R,0.2000X0.6650*%
%ADD26R,4.0000X4.0000*%

%LPD*%
G36*
X2195220Y6398310D02*
G01*
X2190191Y6393281D01*
X2190191Y6313322D01*
X2195220Y6308293D01*
X2217978Y6308293D01*
X2217978Y6345326D01*
X2250998Y6345326D01*
X2250998Y6308293D01*
X2275179Y6308293D01*
X2280208Y6313322D01*
X2280208Y6393281D01*
X2275179Y6398310D01*
G37*
G36*
X2195220Y6238290D02*
G01*
X2190191Y6233312D01*
X2190191Y6154318D01*
X2195220Y6149289D01*
X2275179Y6149289D01*
X2280208Y6154318D01*
X2280208Y6233312D01*
X2275179Y6238290D01*
X2250998Y6238290D01*
X2250998Y6200292D01*
X2217978Y6200292D01*
X2217978Y6238290D01*
G37*
G36*
X2191918Y5760008D02*
G01*
X2186889Y5754979D01*
X2186889Y5675020D01*
X2191918Y5669991D01*
X2271877Y5669991D01*
X2276906Y5675020D01*
X2276906Y5697778D01*
X2239924Y5697778D01*
X2239924Y5730798D01*
X2276906Y5730798D01*
X2276906Y5754979D01*
X2271877Y5760008D01*
G37*
G36*
X2351887Y5760008D02*
G01*
X2346909Y5754979D01*
X2346909Y5730798D01*
X2384907Y5730798D01*
X2384907Y5697778D01*
X2346909Y5697778D01*
X2346909Y5675020D01*
X2351887Y5669991D01*
X2430881Y5669991D01*
X2435910Y5675020D01*
X2435910Y5754979D01*
X2430881Y5760008D01*
G37*
G36*
X2191918Y5264708D02*
G01*
X2186889Y5259679D01*
X2186889Y5179720D01*
X2191918Y5174691D01*
X2271877Y5174691D01*
X2276906Y5179720D01*
X2276906Y5202478D01*
X2239924Y5202478D01*
X2239924Y5235498D01*
X2276906Y5235498D01*
X2276906Y5259679D01*
X2271877Y5264708D01*
G37*
G36*
X2351887Y5264708D02*
G01*
X2346909Y5259679D01*
X2346909Y5235498D01*
X2384907Y5235498D01*
X2384907Y5202478D01*
X2346909Y5202478D01*
X2346909Y5179720D01*
X2351887Y5174691D01*
X2430881Y5174691D01*
X2435910Y5179720D01*
X2435910Y5259679D01*
X2430881Y5264708D01*
G37*
D17*
G01*
X711200Y5549900D03*
G01*
X711200Y5410200D03*
D18*
G01*
X711200Y5194300D03*
G01*
X711200Y4953000D03*
D17*
G01*
X711200Y6756400D03*
G01*
X711200Y6618503D03*
G01*
X711200Y6480632D03*
G01*
X711200Y6342735D03*
G01*
X711200Y6204864D03*
G01*
X711200Y6066967D03*
G01*
X711200Y5929096D03*
G01*
X711200Y5791200D03*
G36*
X2862099Y4883701D02*
G01*
X2942099Y4883701D01*
X2942099Y4793698D01*
X2862099Y4793698D01*
G37*
G36*
X2722100Y4883701D02*
G01*
X2802100Y4883701D01*
X2802100Y4793698D01*
X2722100Y4793698D01*
G37*
G36*
X2172568Y6733910D02*
G01*
X2272568Y6733910D01*
X2272568Y6643918D01*
X2172568Y6643918D01*
G37*
G36*
X2172568Y6563911D02*
G01*
X2272568Y6563911D01*
X2272568Y6473918D01*
X2172568Y6473918D01*
G37*
G36*
X1771700Y4939012D02*
G01*
X1951700Y4939012D01*
X1951700Y4829012D01*
X1771700Y4829012D01*
G37*
G36*
X2391699Y4939014D02*
G01*
X2571699Y4939014D01*
X2571699Y4829012D01*
X2391699Y4829012D01*
G37*
G36*
X1771700Y4569012D02*
G01*
X1951700Y4569012D01*
X1951700Y4459010D01*
X1771700Y4459010D01*
G37*
G36*
X2391699Y4569012D02*
G01*
X2571699Y4569012D01*
X2571699Y4459010D01*
X2391699Y4459010D01*
G37*
G01*
X2396388Y5880100D03*
G01*
X2226386Y5880100D03*
G01*
X2396388Y5397500D03*
G01*
X2226386Y5397500D03*
D24*
G01*
X1750440Y6191580D03*
G01*
X1750440Y6231585D03*
G01*
X1750440Y6271590D03*
G01*
X1750440Y6311569D03*
G01*
X1750440Y6351574D03*
G01*
X1750440Y6391579D03*
G01*
X1750440Y6431584D03*
G01*
X1750440Y6471589D03*
G01*
X1750440Y6511569D03*
G01*
X1750440Y6551574D03*
G01*
X1750440Y6591579D03*
G01*
X1750440Y6631584D03*
G01*
X1750440Y6671589D03*
G01*
X1750440Y6711569D03*
D25*
G01*
X1669694Y6792366D03*
G01*
X1629714Y6792366D03*
G01*
X1589709Y6792366D03*
G01*
X1549704Y6792366D03*
G01*
X1509699Y6792366D03*
G01*
X1469694Y6792366D03*
G01*
X1429715Y6792366D03*
G01*
X1389710Y6792366D03*
G01*
X1349705Y6792366D03*
G01*
X1309700Y6792366D03*
G01*
X1269695Y6792366D03*
G01*
X1229715Y6792366D03*
G01*
X1189710Y6792366D03*
G01*
X1149705Y6792366D03*
D24*
G01*
X1068933Y6711569D03*
G01*
X1068933Y6671589D03*
G01*
X1068933Y6631584D03*
G01*
X1068933Y6591579D03*
G01*
X1068933Y6551574D03*
G01*
X1068933Y6511569D03*
G01*
X1068933Y6471589D03*
G01*
X1068933Y6431584D03*
G01*
X1068933Y6391579D03*
G01*
X1068933Y6351574D03*
G01*
X1068933Y6311569D03*
G01*
X1068933Y6271590D03*
G01*
X1068933Y6231585D03*
G01*
X1068933Y6191580D03*
D25*
G01*
X1149705Y6110833D03*
G01*
X1189710Y6110833D03*
G01*
X1229715Y6110833D03*
G01*
X1269695Y6110833D03*
G01*
X1309700Y6110833D03*
G01*
X1349705Y6110833D03*
G01*
X1389710Y6110833D03*
G01*
X1429715Y6110833D03*
G01*
X1469694Y6110833D03*
G01*
X1509699Y6110833D03*
G01*
X1549704Y6110833D03*
G01*
X1589709Y6110833D03*
G01*
X1629714Y6110833D03*
G01*
X1669694Y6110833D03*
D26*
G01*
X1409700Y6451574D03*
M02*
