G04 Layer: TopLayer*
G04 EasyEDA v6.4.25, 2021-10-20T20:18:06+03:00*
G04 dcba5cd40900447394ce88492ccb6976,3ac546bf038a4e40b039f7879bd882b5,10*
G04 Gerber Generator version 0.2*
G04 Scale: 100 percent, Rotated: No, Reflected: No *
G04 Dimensions in millimeters *
G04 leading zeros omitted , absolute positions ,4 integer and 5 decimal *
%FSLAX45Y45*%
%MOMM*%

%ADD11C,0.1000*%
%ADD12C,0.5000*%
%ADD13C,0.8000*%
%ADD14C,0.4000*%
%ADD15C,0.2000*%
%ADD16C,0.6100*%
%ADD17R,0.8999X1.0000*%
%ADD18R,0.8999X2.0000*%
%ADD22R,0.8640X0.8065*%
%ADD24R,0.6650X0.2000*%
%ADD25R,0.2000X0.6650*%
%ADD26R,4.0000X4.0000*%
%ADD28C,1.7000*%
%ADD29C,1.5748*%
%ADD30R,1.5748X1.5748*%

%LPD*%
D11*
X1283893Y6029731D02*
G01*
X1256461Y6029731D01*
X776630Y5549900D01*
X1283893Y6029731D02*
G01*
X1311325Y6057163D01*
X1349705Y6057163D01*
X711200Y5549900D02*
G01*
X776630Y5549900D01*
X1349705Y6110833D02*
G01*
X1349705Y6057163D01*
X2386736Y5219700D02*
G01*
X2447467Y5219700D01*
X1389710Y5986322D02*
G01*
X1275943Y5872556D01*
X1137538Y5872556D01*
X776630Y5511647D01*
X776630Y5410200D01*
X1389710Y5986322D02*
G01*
X1488694Y5986322D01*
X1519377Y5955639D01*
X1389710Y6057163D02*
G01*
X1389710Y5986322D01*
X1389710Y6110833D02*
G01*
X1389710Y6057163D01*
X711200Y5410200D02*
G01*
X776630Y5410200D01*
X2417114Y5715000D02*
G01*
X2386736Y5715000D01*
X2417114Y5715000D02*
G01*
X2447467Y5715000D01*
X2794000Y5753100D02*
G01*
X2485567Y5753100D01*
X2447467Y5715000D01*
X1428419Y5773673D02*
G01*
X1413281Y5788787D01*
X1089837Y5788787D01*
X856665Y5555614D01*
X856665Y5427471D01*
X743915Y5314721D01*
X711200Y5314721D01*
X1435100Y5689600D02*
G01*
X1435100Y5766968D01*
X1428419Y5773673D01*
X1696770Y6191580D02*
G01*
X1696770Y6164122D01*
X1710181Y6150711D01*
X1710181Y6055436D01*
X1428419Y5773673D01*
X711200Y5194300D02*
G01*
X711200Y5314721D01*
X1750440Y6191580D02*
G01*
X1696770Y6191580D01*
X2235200Y6198463D02*
G01*
X2235200Y6007100D01*
X2235200Y6198463D02*
G01*
X2235200Y6259220D01*
X2197100Y6934200D02*
G01*
X2197100Y6835038D01*
X2197100Y6835038D02*
G01*
X2221890Y6835038D01*
X2298852Y6758076D01*
X2298852Y6292494D01*
X2265578Y6259220D01*
X2235200Y6259220D01*
X1181100Y5689600D02*
G01*
X1181100Y5477890D01*
X1409700Y6231178D02*
G01*
X1409700Y6205397D01*
X1409700Y6451574D02*
G01*
X1409700Y6231178D01*
X2481706Y4884013D02*
G01*
X2371267Y4884013D01*
X2396388Y5397500D02*
G01*
X2330983Y5397500D01*
X2222576Y6688912D02*
G01*
X2152141Y6688912D01*
X2152141Y6688912D02*
G01*
X2152141Y6725158D01*
X1943100Y6934200D01*
X2762097Y4838700D02*
G01*
X2701670Y4838700D01*
X711200Y6756400D02*
G01*
X776630Y6756400D01*
X807212Y6762953D02*
G01*
X783183Y6762953D01*
X776630Y6756400D01*
X1750440Y6431584D02*
G01*
X1696745Y6431584D01*
X1660017Y6468313D01*
X1660017Y6546850D01*
X711200Y6618503D02*
G01*
X776630Y6618503D01*
X1750440Y6471589D02*
G01*
X1804136Y6471589D01*
X776630Y6480632D02*
G01*
X883615Y6587617D01*
X883615Y6743039D01*
X1090066Y6949490D01*
X1744294Y6949490D01*
X1917852Y6775932D01*
X1917852Y6625285D01*
X1804136Y6511569D01*
X711200Y6480632D02*
G01*
X776630Y6480632D01*
X1750440Y6511569D02*
G01*
X1804136Y6511569D01*
X776630Y6342735D02*
G01*
X909091Y6475196D01*
X909091Y6732498D01*
X1100607Y6924014D01*
X1733753Y6924014D01*
X1892376Y6765391D01*
X1892376Y6635877D01*
X1808073Y6551574D01*
X1750440Y6551574D01*
X711200Y6342735D02*
G01*
X776630Y6342735D01*
X711200Y6204864D02*
G01*
X776630Y6204864D01*
X1750440Y6591579D02*
G01*
X1806117Y6591579D01*
X1866900Y6652361D01*
X1866900Y6754850D01*
X1723212Y6898538D01*
X1111148Y6898538D01*
X936269Y6723659D01*
X936269Y6364503D01*
X776630Y6204864D01*
X776630Y6066967D02*
G01*
X972540Y6262878D01*
X972540Y6723913D01*
X1121689Y6873062D01*
X1712671Y6873062D01*
X1829612Y6756120D01*
X1829612Y6657035D01*
X1804162Y6631584D01*
X1750440Y6631584D01*
X711200Y6066967D02*
G01*
X776630Y6066967D01*
X776630Y5929096D02*
G01*
X998016Y6150482D01*
X998016Y6713372D01*
X1132230Y6847586D01*
X1702130Y6847586D01*
X1804136Y6745579D01*
X1804136Y6671589D01*
X711200Y5929096D02*
G01*
X776630Y5929096D01*
X1750440Y6671589D02*
G01*
X1804136Y6671589D01*
X711200Y5791200D02*
G01*
X776630Y5791200D01*
X1750440Y6711569D02*
G01*
X1223213Y6711569D01*
X1176528Y6664883D01*
X1176528Y6218402D01*
X776630Y5818504D01*
X776630Y5791200D01*
X1696770Y6351574D02*
G01*
X1696770Y6273292D01*
X1670532Y6247053D01*
X1750440Y6351574D02*
G01*
X1696770Y6351574D01*
X2481706Y4514011D02*
G01*
X2592120Y4514011D01*
X2235200Y6349136D02*
G01*
X2235200Y6409867D01*
X2235200Y6409867D02*
G01*
X2222576Y6422491D01*
X2222576Y6518910D01*
X2226386Y5397500D02*
G01*
X2226386Y5327091D01*
X2226386Y5880100D02*
G01*
X2226386Y5809691D01*
X2226386Y5809691D02*
G01*
X2236063Y5800013D01*
X2236063Y5715000D01*
X1750440Y6391579D02*
G01*
X1804136Y6391579D01*
D12*
X1181100Y5478018D02*
G01*
X1181100Y5524500D01*
X2273300Y5524500D01*
X2330958Y5466842D01*
X2330958Y5397500D01*
X1181100Y5478018D02*
G01*
X719581Y5016500D01*
X711200Y5016500D01*
D13*
X2794000Y5499100D02*
G01*
X2514600Y5219700D01*
X2386736Y5219700D01*
D14*
X2371343Y4883912D02*
G01*
X2330958Y4924297D01*
X2330958Y5397500D01*
D13*
X2226386Y5397500D02*
G01*
X2236063Y5317413D01*
X2236063Y5219700D01*
X2481834Y4883912D02*
G01*
X2656331Y4883912D01*
X2762097Y4838700D01*
D14*
X2481706Y4514011D02*
G01*
X2841675Y4763566D01*
X2902102Y4838700D01*
D12*
X2794000Y6261100D02*
G01*
X2921000Y6146800D01*
X2921000Y5080000D01*
X2908300Y5067300D01*
X2902204Y4838700D01*
D13*
X2794000Y6515100D02*
G01*
X2396388Y6117488D01*
X2396388Y5880100D01*
D15*
X776731Y6618478D02*
G01*
X858012Y6700012D01*
X858012Y6765544D01*
X1142745Y7050023D01*
X2275331Y7050023D01*
X2311400Y7013955D01*
X2311400Y5664454D01*
X2287524Y5640578D01*
X2188463Y5640578D01*
X1943354Y5885687D01*
X1943354Y6332473D01*
X1804162Y6471665D01*
D11*
X1804162Y6391655D02*
G01*
X1804162Y5804662D01*
X1776221Y5776721D01*
X1769110Y5769610D01*
X1755394Y5755894D01*
X1689100Y5689600D01*
D17*
G01*
X711200Y5549900D03*
G01*
X711200Y5410200D03*
D18*
G01*
X711200Y5194300D03*
G01*
X711200Y4953000D03*
D17*
G01*
X711200Y6756400D03*
G01*
X711200Y6618503D03*
G01*
X711200Y6480632D03*
G01*
X711200Y6342735D03*
G01*
X711200Y6204864D03*
G01*
X711200Y6066967D03*
G01*
X711200Y5929096D03*
G01*
X711200Y5791200D03*
G36*
X2862099Y4883701D02*
G01*
X2942099Y4883701D01*
X2942099Y4793698D01*
X2862099Y4793698D01*
G37*
G36*
X2722100Y4883701D02*
G01*
X2802100Y4883701D01*
X2802100Y4793698D01*
X2722100Y4793698D01*
G37*
G36*
X2172568Y6733910D02*
G01*
X2272568Y6733910D01*
X2272568Y6643918D01*
X2172568Y6643918D01*
G37*
G36*
X2172568Y6563911D02*
G01*
X2272568Y6563911D01*
X2272568Y6473918D01*
X2172568Y6473918D01*
G37*
G36*
X1771700Y4939012D02*
G01*
X1951700Y4939012D01*
X1951700Y4829012D01*
X1771700Y4829012D01*
G37*
G36*
X2391699Y4939014D02*
G01*
X2571699Y4939014D01*
X2571699Y4829012D01*
X2391699Y4829012D01*
G37*
G36*
X1771700Y4569012D02*
G01*
X1951700Y4569012D01*
X1951700Y4459010D01*
X1771700Y4459010D01*
G37*
G36*
X2391699Y4569012D02*
G01*
X2571699Y4569012D01*
X2571699Y4459010D01*
X2391699Y4459010D01*
G37*
G36*
X2278400Y6308801D02*
G01*
X2191999Y6308801D01*
X2191999Y6389448D01*
X2278400Y6389448D01*
G37*
D22*
G01*
X2235200Y6198463D03*
G36*
X2276398Y5758200D02*
G01*
X2276398Y5671799D01*
X2195751Y5671799D01*
X2195751Y5758200D01*
G37*
G36*
X2346401Y5758200D02*
G01*
X2346401Y5671799D01*
X2427048Y5671799D01*
X2427048Y5758200D01*
G37*
G36*
X2276398Y5262900D02*
G01*
X2276398Y5176499D01*
X2195751Y5176499D01*
X2195751Y5262900D01*
G37*
G36*
X2346401Y5262900D02*
G01*
X2346401Y5176499D01*
X2427048Y5176499D01*
X2427048Y5262900D01*
G37*
D17*
G01*
X2396388Y5880100D03*
G01*
X2226386Y5880100D03*
G01*
X2396388Y5397500D03*
G01*
X2226386Y5397500D03*
D24*
G01*
X1750440Y6191580D03*
G01*
X1750440Y6231585D03*
G01*
X1750440Y6271590D03*
G01*
X1750440Y6311569D03*
G01*
X1750440Y6351574D03*
G01*
X1750440Y6391579D03*
G01*
X1750440Y6431584D03*
G01*
X1750440Y6471589D03*
G01*
X1750440Y6511569D03*
G01*
X1750440Y6551574D03*
G01*
X1750440Y6591579D03*
G01*
X1750440Y6631584D03*
G01*
X1750440Y6671589D03*
G01*
X1750440Y6711569D03*
D25*
G01*
X1669694Y6792366D03*
G01*
X1629714Y6792366D03*
G01*
X1589709Y6792366D03*
G01*
X1549704Y6792366D03*
G01*
X1509699Y6792366D03*
G01*
X1469694Y6792366D03*
G01*
X1429715Y6792366D03*
G01*
X1389710Y6792366D03*
G01*
X1349705Y6792366D03*
G01*
X1309700Y6792366D03*
G01*
X1269695Y6792366D03*
G01*
X1229715Y6792366D03*
G01*
X1189710Y6792366D03*
G01*
X1149705Y6792366D03*
D24*
G01*
X1068933Y6711569D03*
G01*
X1068933Y6671589D03*
G01*
X1068933Y6631584D03*
G01*
X1068933Y6591579D03*
G01*
X1068933Y6551574D03*
G01*
X1068933Y6511569D03*
G01*
X1068933Y6471589D03*
G01*
X1068933Y6431584D03*
G01*
X1068933Y6391579D03*
G01*
X1068933Y6351574D03*
G01*
X1068933Y6311569D03*
G01*
X1068933Y6271590D03*
G01*
X1068933Y6231585D03*
G01*
X1068933Y6191580D03*
D25*
G01*
X1149705Y6110833D03*
G01*
X1189710Y6110833D03*
G01*
X1229715Y6110833D03*
G01*
X1269695Y6110833D03*
G01*
X1309700Y6110833D03*
G01*
X1349705Y6110833D03*
G01*
X1389710Y6110833D03*
G01*
X1429715Y6110833D03*
G01*
X1469694Y6110833D03*
G01*
X1509699Y6110833D03*
G01*
X1549704Y6110833D03*
G01*
X1589709Y6110833D03*
G01*
X1629714Y6110833D03*
G01*
X1669694Y6110833D03*
D26*
G01*
X1409700Y6451574D03*
G36*
X2282098Y7012939D02*
G01*
X2112098Y7012939D01*
X2112098Y6855460D01*
X2282098Y6855460D01*
G37*
D28*
G01*
X1943100Y6934200D03*
D29*
G01*
X1689100Y5689600D03*
G01*
X1435100Y5689600D03*
G36*
X1102360Y5768339D02*
G01*
X1259839Y5768339D01*
X1259839Y5610860D01*
X1102360Y5610860D01*
G37*
G01*
X2794000Y6515100D03*
G01*
X2794000Y6261100D03*
G01*
X2794000Y6007100D03*
G01*
X2794000Y5753100D03*
G01*
X2794000Y5499100D03*
D30*
G01*
X2794000Y5245100D03*
D16*
G01*
X1283893Y6029731D03*
G01*
X1519377Y5955639D03*
G01*
X2235200Y6007100D03*
G01*
X1409700Y6205397D03*
G01*
X807212Y6762953D03*
G01*
X1660017Y6546850D03*
G01*
X1670532Y6247053D03*
M02*
