G04 Layer: TopSolderMaskLayer*
G04 EasyEDA v6.4.25, 2021-10-20T20:18:06+03:00*
G04 dcba5cd40900447394ce88492ccb6976,3ac546bf038a4e40b039f7879bd882b5,10*
G04 Gerber Generator version 0.2*
G04 Scale: 100 percent, Rotated: No, Reflected: No *
G04 Dimensions in millimeters *
G04 leading zeros omitted , absolute positions ,4 integer and 5 decimal *
%FSLAX45Y45*%
%MOMM*%

%ADD41C,1.8016*%
%ADD46C,1.6764*%
%ADD47R,1.6764X1.6764*%

%LPD*%
G36*
X661162Y5494781D02*
G01*
X661162Y5605018D01*
X761237Y5605018D01*
X761237Y5494781D01*
G37*
G36*
X661162Y5355081D02*
G01*
X661162Y5465318D01*
X761237Y5465318D01*
X761237Y5355081D01*
G37*
G36*
X661162Y5089144D02*
G01*
X661162Y5299455D01*
X761237Y5299455D01*
X761237Y5089144D01*
G37*
G36*
X661162Y4847844D02*
G01*
X661162Y5058155D01*
X761237Y5058155D01*
X761237Y4847844D01*
G37*
G36*
X661162Y6701281D02*
G01*
X661162Y6811518D01*
X761237Y6811518D01*
X761237Y6701281D01*
G37*
G36*
X661162Y6563360D02*
G01*
X661162Y6673595D01*
X761237Y6673595D01*
X761237Y6563360D01*
G37*
G36*
X661162Y6425437D02*
G01*
X661162Y6535673D01*
X761237Y6535673D01*
X761237Y6425437D01*
G37*
G36*
X661162Y6287770D02*
G01*
X661162Y6397752D01*
X761237Y6397752D01*
X761237Y6287770D01*
G37*
G36*
X661162Y6149847D02*
G01*
X661162Y6259829D01*
X761237Y6259829D01*
X761237Y6149847D01*
G37*
G36*
X661162Y6011926D02*
G01*
X661162Y6122162D01*
X761237Y6122162D01*
X761237Y6011926D01*
G37*
G36*
X661162Y5874004D02*
G01*
X661162Y5984239D01*
X761237Y5984239D01*
X761237Y5874004D01*
G37*
G36*
X661162Y5736081D02*
G01*
X661162Y5846318D01*
X761237Y5846318D01*
X761237Y5736081D01*
G37*
G36*
X2106929Y6850379D02*
G01*
X2106929Y7018020D01*
X2287270Y7018020D01*
X2287270Y6850379D01*
G37*
D41*
G01*
X1943100Y6934200D03*
G36*
X2856991Y4788662D02*
G01*
X2856991Y4888737D01*
X2947161Y4888737D01*
X2947161Y4788662D01*
G37*
G36*
X2717038Y4788662D02*
G01*
X2717038Y4888737D01*
X2807208Y4888737D01*
X2807208Y4788662D01*
G37*
G36*
X2167381Y6638797D02*
G01*
X2167381Y6738873D01*
X2277618Y6738873D01*
X2277618Y6638797D01*
G37*
G36*
X2167381Y6468871D02*
G01*
X2167381Y6568947D01*
X2277618Y6568947D01*
X2277618Y6468871D01*
G37*
G36*
X1766570Y4823968D02*
G01*
X1766570Y4944110D01*
X1956815Y4944110D01*
X1956815Y4823968D01*
G37*
G36*
X2386584Y4823968D02*
G01*
X2386584Y4944110D01*
X2576829Y4944110D01*
X2576829Y4823968D01*
G37*
G36*
X1766570Y4453889D02*
G01*
X1766570Y4574031D01*
X1956815Y4574031D01*
X1956815Y4453889D01*
G37*
G36*
X2386584Y4453889D02*
G01*
X2386584Y4574031D01*
X2576829Y4574031D01*
X2576829Y4453889D01*
G37*
G36*
X2186940Y6303771D02*
G01*
X2186940Y6394450D01*
X2283459Y6394450D01*
X2283459Y6303771D01*
G37*
G36*
X2186940Y6153150D02*
G01*
X2186940Y6243828D01*
X2283459Y6243828D01*
X2283459Y6153150D01*
G37*
D46*
G01*
X1689100Y5689600D03*
G01*
X1435100Y5689600D03*
G36*
X1097279Y5605779D02*
G01*
X1097279Y5773420D01*
X1264920Y5773420D01*
X1264920Y5605779D01*
G37*
G36*
X2190750Y5666739D02*
G01*
X2190750Y5763260D01*
X2281427Y5763260D01*
X2281427Y5666739D01*
G37*
G36*
X2341372Y5666739D02*
G01*
X2341372Y5763260D01*
X2432050Y5763260D01*
X2432050Y5666739D01*
G37*
G36*
X2190750Y5171439D02*
G01*
X2190750Y5267960D01*
X2281427Y5267960D01*
X2281427Y5171439D01*
G37*
G36*
X2341372Y5171439D02*
G01*
X2341372Y5267960D01*
X2432050Y5267960D01*
X2432050Y5171439D01*
G37*
G36*
X2346197Y5824981D02*
G01*
X2346197Y5935218D01*
X2446527Y5935218D01*
X2446527Y5824981D01*
G37*
G36*
X2176272Y5824981D02*
G01*
X2176272Y5935218D01*
X2276347Y5935218D01*
X2276347Y5824981D01*
G37*
G36*
X2346197Y5342381D02*
G01*
X2346197Y5452618D01*
X2446527Y5452618D01*
X2446527Y5342381D01*
G37*
G36*
X2176272Y5342381D02*
G01*
X2176272Y5452618D01*
X2276347Y5452618D01*
X2276347Y5342381D01*
G37*
G01*
X2794000Y6515100D03*
G01*
X2794000Y6261100D03*
G01*
X2794000Y6007100D03*
G01*
X2794000Y5753100D03*
G01*
X2794000Y5499100D03*
D47*
G01*
X2794000Y5245100D03*
G36*
X1712213Y6176518D02*
G01*
X1712213Y6206744D01*
X1788668Y6206744D01*
X1788668Y6176518D01*
G37*
G36*
X1712213Y6216395D02*
G01*
X1712213Y6246621D01*
X1788668Y6246621D01*
X1788668Y6216395D01*
G37*
G36*
X1712213Y6256528D02*
G01*
X1712213Y6286754D01*
X1788668Y6286754D01*
X1788668Y6256528D01*
G37*
G36*
X1712213Y6296405D02*
G01*
X1712213Y6326631D01*
X1788668Y6326631D01*
X1788668Y6296405D01*
G37*
G36*
X1712213Y6336537D02*
G01*
X1712213Y6366763D01*
X1788668Y6366763D01*
X1788668Y6336537D01*
G37*
G36*
X1712213Y6376415D02*
G01*
X1712213Y6406642D01*
X1788668Y6406642D01*
X1788668Y6376415D01*
G37*
G36*
X1712213Y6416547D02*
G01*
X1712213Y6446773D01*
X1788668Y6446773D01*
X1788668Y6416547D01*
G37*
G36*
X1712213Y6456426D02*
G01*
X1712213Y6486652D01*
X1788668Y6486652D01*
X1788668Y6456426D01*
G37*
G36*
X1712213Y6496557D02*
G01*
X1712213Y6526784D01*
X1788668Y6526784D01*
X1788668Y6496557D01*
G37*
G36*
X1712213Y6536436D02*
G01*
X1712213Y6566662D01*
X1788668Y6566662D01*
X1788668Y6536436D01*
G37*
G36*
X1712213Y6576568D02*
G01*
X1712213Y6606794D01*
X1788668Y6606794D01*
X1788668Y6576568D01*
G37*
G36*
X1712213Y6616445D02*
G01*
X1712213Y6646671D01*
X1788668Y6646671D01*
X1788668Y6616445D01*
G37*
G36*
X1712213Y6656578D02*
G01*
X1712213Y6686804D01*
X1788668Y6686804D01*
X1788668Y6656578D01*
G37*
G36*
X1712213Y6696455D02*
G01*
X1712213Y6726681D01*
X1788668Y6726681D01*
X1788668Y6696455D01*
G37*
G36*
X1654555Y6754113D02*
G01*
X1654555Y6830568D01*
X1684781Y6830568D01*
X1684781Y6754113D01*
G37*
G36*
X1614678Y6754113D02*
G01*
X1614678Y6830568D01*
X1644904Y6830568D01*
X1644904Y6754113D01*
G37*
G36*
X1574545Y6754113D02*
G01*
X1574545Y6830568D01*
X1604771Y6830568D01*
X1604771Y6754113D01*
G37*
G36*
X1534668Y6754113D02*
G01*
X1534668Y6830568D01*
X1564894Y6830568D01*
X1564894Y6754113D01*
G37*
G36*
X1494536Y6754113D02*
G01*
X1494536Y6830568D01*
X1524762Y6830568D01*
X1524762Y6754113D01*
G37*
G36*
X1454657Y6754113D02*
G01*
X1454657Y6830568D01*
X1484884Y6830568D01*
X1484884Y6754113D01*
G37*
G36*
X1414526Y6754113D02*
G01*
X1414526Y6830568D01*
X1444752Y6830568D01*
X1444752Y6754113D01*
G37*
G36*
X1374647Y6754113D02*
G01*
X1374647Y6830568D01*
X1404873Y6830568D01*
X1404873Y6754113D01*
G37*
G36*
X1334515Y6754113D02*
G01*
X1334515Y6830568D01*
X1364742Y6830568D01*
X1364742Y6754113D01*
G37*
G36*
X1294637Y6754113D02*
G01*
X1294637Y6830568D01*
X1324863Y6830568D01*
X1324863Y6754113D01*
G37*
G36*
X1254505Y6754113D02*
G01*
X1254505Y6830568D01*
X1284731Y6830568D01*
X1284731Y6754113D01*
G37*
G36*
X1214628Y6754113D02*
G01*
X1214628Y6830568D01*
X1244854Y6830568D01*
X1244854Y6754113D01*
G37*
G36*
X1174495Y6754113D02*
G01*
X1174495Y6830568D01*
X1204721Y6830568D01*
X1204721Y6754113D01*
G37*
G36*
X1134618Y6754113D02*
G01*
X1134618Y6830568D01*
X1164844Y6830568D01*
X1164844Y6754113D01*
G37*
G36*
X1030731Y6696455D02*
G01*
X1030731Y6726681D01*
X1107186Y6726681D01*
X1107186Y6696455D01*
G37*
G36*
X1030731Y6656578D02*
G01*
X1030731Y6686804D01*
X1107186Y6686804D01*
X1107186Y6656578D01*
G37*
G36*
X1030731Y6616445D02*
G01*
X1030731Y6646671D01*
X1107186Y6646671D01*
X1107186Y6616445D01*
G37*
G36*
X1030731Y6576568D02*
G01*
X1030731Y6606794D01*
X1107186Y6606794D01*
X1107186Y6576568D01*
G37*
G36*
X1030731Y6536436D02*
G01*
X1030731Y6566662D01*
X1107186Y6566662D01*
X1107186Y6536436D01*
G37*
G36*
X1030731Y6496557D02*
G01*
X1030731Y6526784D01*
X1107186Y6526784D01*
X1107186Y6496557D01*
G37*
G36*
X1030731Y6456426D02*
G01*
X1030731Y6486652D01*
X1107186Y6486652D01*
X1107186Y6456426D01*
G37*
G36*
X1030731Y6416547D02*
G01*
X1030731Y6446773D01*
X1107186Y6446773D01*
X1107186Y6416547D01*
G37*
G36*
X1030731Y6376415D02*
G01*
X1030731Y6406642D01*
X1107186Y6406642D01*
X1107186Y6376415D01*
G37*
G36*
X1030731Y6336537D02*
G01*
X1030731Y6366763D01*
X1107186Y6366763D01*
X1107186Y6336537D01*
G37*
G36*
X1030731Y6296405D02*
G01*
X1030731Y6326631D01*
X1107186Y6326631D01*
X1107186Y6296405D01*
G37*
G36*
X1030731Y6256528D02*
G01*
X1030731Y6286754D01*
X1107186Y6286754D01*
X1107186Y6256528D01*
G37*
G36*
X1030731Y6216395D02*
G01*
X1030731Y6246621D01*
X1107186Y6246621D01*
X1107186Y6216395D01*
G37*
G36*
X1030731Y6176518D02*
G01*
X1030731Y6206744D01*
X1107186Y6206744D01*
X1107186Y6176518D01*
G37*
G36*
X1134618Y6072631D02*
G01*
X1134618Y6149086D01*
X1164844Y6149086D01*
X1164844Y6072631D01*
G37*
G36*
X1174495Y6072631D02*
G01*
X1174495Y6149086D01*
X1204721Y6149086D01*
X1204721Y6072631D01*
G37*
G36*
X1214628Y6072631D02*
G01*
X1214628Y6149086D01*
X1244854Y6149086D01*
X1244854Y6072631D01*
G37*
G36*
X1254505Y6072631D02*
G01*
X1254505Y6149086D01*
X1284731Y6149086D01*
X1284731Y6072631D01*
G37*
G36*
X1294637Y6072631D02*
G01*
X1294637Y6149086D01*
X1324863Y6149086D01*
X1324863Y6072631D01*
G37*
G36*
X1334515Y6072631D02*
G01*
X1334515Y6149086D01*
X1364742Y6149086D01*
X1364742Y6072631D01*
G37*
G36*
X1374647Y6072631D02*
G01*
X1374647Y6149086D01*
X1404873Y6149086D01*
X1404873Y6072631D01*
G37*
G36*
X1414526Y6072631D02*
G01*
X1414526Y6149086D01*
X1444752Y6149086D01*
X1444752Y6072631D01*
G37*
G36*
X1454657Y6072631D02*
G01*
X1454657Y6149086D01*
X1484884Y6149086D01*
X1484884Y6072631D01*
G37*
G36*
X1494536Y6072631D02*
G01*
X1494536Y6149086D01*
X1524762Y6149086D01*
X1524762Y6072631D01*
G37*
G36*
X1534668Y6072631D02*
G01*
X1534668Y6149086D01*
X1564894Y6149086D01*
X1564894Y6072631D01*
G37*
G36*
X1574545Y6072631D02*
G01*
X1574545Y6149086D01*
X1604771Y6149086D01*
X1604771Y6072631D01*
G37*
G36*
X1614678Y6072631D02*
G01*
X1614678Y6149086D01*
X1644904Y6149086D01*
X1644904Y6072631D01*
G37*
G36*
X1654555Y6072631D02*
G01*
X1654555Y6149086D01*
X1684781Y6149086D01*
X1684781Y6072631D01*
G37*
G36*
X1204721Y6246621D02*
G01*
X1204721Y6656578D01*
X1614678Y6656578D01*
X1614678Y6246621D01*
G37*
M02*
